<svg width="40" height="40" viewBox="0 0 40 40" fill="none" xmlns="http://www.w3.org/2000/svg">
<path fill-rule="evenodd" clip-rule="evenodd" d="M20 38C29.9411 38 38 29.9411 38 20C38 10.0589 29.9411 2 20 2C10.0589 2 2 10.0589 2 20C2 29.9411 10.0589 38 20 38ZM13.3045 27.4247C14.3872 28.5075 15.6799 29.0489 17.1825 29.0489C18.6851 29.0489 19.9778 28.5075 21.0606 27.4247L27.7891 20.6962L26.3639 19.2709L19.6353 25.9995C18.9503 26.6845 18.1327 27.038 17.1825 27.0601C16.2103 27.0601 15.3816 26.7176 14.6966 26.0326C14.0116 25.3476 13.6691 24.519 13.6691 23.5467C13.6691 22.5744 14.0116 21.7458 14.6966 21.0608L22.1212 13.6361C22.4969 13.2605 22.972 13.0727 23.5465 13.0727C24.121 13.0727 24.5961 13.2605 24.9717 13.6361C25.3474 14.0118 25.5352 14.4869 25.5352 15.0614C25.5131 15.6138 25.3143 16.0779 24.9386 16.4535L18.873 22.5192C18.6741 22.718 18.4642 22.707 18.2432 22.486C18.0001 22.243 17.978 22.022 18.1769 21.8231L23.5465 16.4535L22.1212 15.0283L16.8179 20.3316C16.3318 20.8177 16.0887 21.4143 16.0887 22.1214C16.0887 22.8285 16.3318 23.4252 16.8179 23.9113C17.3041 24.3974 17.9007 24.6405 18.6078 24.6405C19.2928 24.6184 19.8784 24.3643 20.3645 23.8781L26.3639 17.8788C27.1373 17.1054 27.524 16.1663 27.524 15.0614C27.524 13.9565 27.1373 13.0174 26.3639 12.244C25.5905 11.4706 24.6513 11.0839 23.5465 11.0839C22.4195 11.0618 21.4694 11.4375 20.696 12.2109L13.2713 19.6355C12.1886 20.7183 11.6583 22.022 11.6804 23.5467C11.6804 25.0493 12.2217 26.342 13.3045 27.4247Z" fill="black"/>
</svg>
