<svg width="40" height="40" viewBox="0 0 40 40" fill="none" xmlns="http://www.w3.org/2000/svg">
<path fill-rule="evenodd" clip-rule="evenodd" d="M20 38C29.9411 38 38 29.9411 38 20C38 10.0589 29.9411 2 20 2C10.0589 2 2 10.0589 2 20C2 29.9411 10.0589 38 20 38ZM17.5267 11.8682C18.9333 10.4618 20.8409 9.67165 22.83 9.67165C24.8192 9.67165 26.727 10.4619 28.1336 11.8685C29.5402 13.275 30.3304 15.1828 30.3304 17.172C30.3304 19.1612 29.5402 21.069 28.1336 22.4756L26.3635 24.2431L24.2432 22.1198L26.0105 20.3524L26.012 20.3509C26.4329 19.9337 26.7672 19.4375 26.9958 18.8907C27.2244 18.344 27.3427 17.7575 27.344 17.1649C27.3453 16.5723 27.2295 15.9852 27.0033 15.4375C26.7772 14.8898 26.445 14.3921 26.026 13.973C25.6069 13.554 25.1093 13.2219 24.5615 12.9957C24.0138 12.7695 23.4267 12.6537 22.8341 12.655C22.2415 12.6563 21.655 12.7747 21.1083 13.0032C20.5615 13.2318 20.0653 13.5661 19.6481 13.987L19.6467 13.9884L17.8793 15.7571L15.7565 13.6359L17.5267 11.8682ZM13.9896 19.6476L13.988 19.6491C13.5671 20.0663 13.2328 20.5625 13.0042 21.1093C12.7757 21.656 12.6573 22.2425 12.656 22.8351C12.6547 23.4277 12.7705 24.0148 12.9967 24.5625C13.2229 25.1103 13.555 25.6079 13.974 26.027C14.3931 26.446 14.8908 26.7781 15.4385 27.0043C15.9862 27.2305 16.5733 27.3463 17.1659 27.345C17.7585 27.3437 18.345 27.2253 18.8918 26.9968C19.4385 26.7682 19.9347 26.4339 20.3519 26.013L20.3535 26.0114L22.1208 24.2441L24.2435 26.3639L22.4746 28.1316C21.068 29.5381 19.1602 30.3284 17.171 30.3284C15.1818 30.3284 13.274 29.5381 11.8675 28.1316C10.4609 26.725 9.67065 24.8172 9.67065 22.828C9.67065 20.8388 10.4609 18.931 11.8675 17.5245L13.6364 15.7568L15.7569 17.8803L13.9896 19.6476ZM24.9501 17.172L22.828 15.0499L15.0498 22.8281L17.1721 24.949L24.9501 17.172Z" fill="black"/>
</svg>
