<svg width="22" height="22" viewBox="0 0 22 22" fill="none" xmlns="http://www.w3.org/2000/svg">
<path d="M8.52695 2.86819C9.93352 1.46175 11.8412 0.671631 13.8303 0.671631C15.8195 0.671631 17.7272 1.46185 19.1338 2.86843C20.5404 4.27502 21.3306 6.18277 21.3306 8.17199C21.3306 10.1612 20.5404 12.069 19.1338 13.4755L17.3638 15.2431L15.2434 13.1197L17.0107 11.3524L17.0123 11.3509C17.4331 10.9337 17.7674 10.4375 17.996 9.89073C18.2246 9.34398 18.3429 8.75746 18.3442 8.16486C18.3455 7.57225 18.2298 6.98523 18.0036 6.43748C17.7774 5.88974 17.4453 5.39206 17.0262 4.97302C16.6072 4.55399 16.1095 4.22184 15.5618 3.99566C15.014 3.76948 14.427 3.65372 13.8344 3.65502C13.2418 3.65631 12.6553 3.77465 12.1085 4.00323C11.5618 4.2318 11.0656 4.56612 10.6484 4.98699L10.6469 4.98842L8.87951 6.75709L6.75677 4.63586L8.52695 2.86819Z" fill="white"/>
<path d="M4.98981 10.6475L4.98826 10.6491C4.56739 11.0663 4.23307 11.5625 4.00449 12.1092C3.77591 12.656 3.65758 13.2425 3.65628 13.8351C3.65498 14.4277 3.77075 15.0147 3.99693 15.5625C4.22311 16.1102 4.55526 16.6079 4.97429 17.027C5.39333 17.446 5.891 17.7781 6.43875 18.0043C6.98649 18.2305 7.57352 18.3463 8.16613 18.345C8.75873 18.3437 9.34524 18.2253 9.89199 17.9968C10.4387 17.7682 10.935 17.4339 11.3522 17.013L11.3537 17.0114L13.121 15.2441L15.2437 17.3639L13.4748 19.1315C12.0682 20.5381 10.1605 21.3283 8.17126 21.3283C6.18204 21.3283 4.27429 20.5381 2.8677 19.1315C1.46111 17.725 0.670898 15.8172 0.670898 13.828C0.670898 11.8388 1.46111 9.93102 2.8677 8.52444L4.63663 6.75676L6.75711 8.88024L4.98981 10.6475Z" fill="white"/>
<path d="M13.8283 6.04988L15.9504 8.17201L8.17236 15.9489L6.05002 13.8281L13.8283 6.04988Z" fill="white"/>
</svg>
