<svg width="40" height="40" viewBox="0 0 40 40" fill="none" xmlns="http://www.w3.org/2000/svg">
<path fill-rule="evenodd" clip-rule="evenodd" d="M20 38C29.9411 38 38 29.9411 38 20C38 10.0589 29.9411 2 20 2C10.0589 2 2 10.0589 2 20C2 29.9411 10.0589 38 20 38ZM29 27.956V24.42H29.001C29.0012 24.2961 28.9553 24.1766 28.8724 24.0846C28.7894 23.9926 28.6752 23.9346 28.552 23.922C28.324 23.9 28.141 23.878 28.002 23.858C26.6156 23.6601 25.267 23.2539 24.002 22.653C23.9042 22.6068 23.7932 22.5964 23.6885 22.6237C23.5838 22.6509 23.4919 22.714 23.429 22.802L21.889 24.956C18.8145 23.6365 16.3645 21.1865 15.045 18.112L17.203 16.57C17.383 16.442 17.445 16.203 17.35 16.003C16.748 14.7378 16.3407 13.3889 16.142 12.002C16.122 11.863 16.101 11.68 16.078 11.45C16.0656 11.3266 16.0078 11.2122 15.9157 11.129C15.8237 11.0459 15.704 10.9999 15.58 11H12.044C11.7908 10.9999 11.547 11.0958 11.3618 11.2684C11.1766 11.441 11.0637 11.6774 11.046 11.93C11.015 12.367 11 12.724 11 13C11 21.837 18.163 29 27 29C27.276 29 27.633 28.984 28.07 28.954C28.3226 28.9363 28.559 28.8234 28.7316 28.6382C28.9042 28.453 29.0001 28.2092 29 27.956Z" fill="black"/>
</svg>
