<svg width="40" height="40" viewBox="0 0 40 40" fill="none" xmlns="http://www.w3.org/2000/svg">
<path fill-rule="evenodd" clip-rule="evenodd" d="M20 38C29.9411 38 38 29.9411 38 20C38 10.0589 29.9411 2 20 2C10.0589 2 2 10.0589 2 20C2 29.9411 10.0589 38 20 38ZM25 28L19 24.8L16 28L15 22.6667L10 20L28 12L25 28ZM16.7182 25.7874C16.7267 25.7844 16.7337 25.7829 16.7407 25.7815C16.7478 25.78 16.7548 25.7785 16.7632 25.7755C16.7664 25.7524 16.7712 25.7311 16.7759 25.7107L16.7759 25.7107C16.7796 25.6942 16.7832 25.6782 16.7857 25.6623C16.8701 24.7269 16.9545 23.7855 17.0276 22.8501C17.0445 22.6416 17.112 22.4927 17.2582 22.3497C18.38 21.2865 19.5018 20.2126 20.6187 19.1433L20.7795 18.9894L20.7801 18.9888C22.0793 17.7497 23.3784 16.5107 24.672 15.2657C24.7251 15.2134 24.7578 15.1367 24.7907 15.0593C24.8065 15.0221 24.8224 14.9848 24.8407 14.9499C24.7991 14.9459 24.7568 14.9372 24.7147 14.9285C24.6318 14.9114 24.5497 14.8944 24.4751 14.9142C24.3286 14.9544 24.1925 15.0445 24.0619 15.1311L24.0476 15.1406C22.618 16.0955 21.1871 17.0504 19.7561 18.0053L19.7503 18.0092C18.3173 18.9655 16.8842 19.9218 15.4526 20.8781C15.2895 20.9853 15.2614 21.0747 15.3232 21.2653C15.4968 21.7878 15.6555 22.3143 15.8145 22.8414L15.8148 22.8426C15.8515 22.9642 15.8882 23.0859 15.9251 23.2076C16.0573 23.6366 16.1895 24.0671 16.3217 24.4975L16.3222 24.4992C16.4542 24.9291 16.5862 25.359 16.7182 25.7874Z" fill="black"/>
</svg>
