<svg width="132" height="264" viewBox="0 0 132 264" fill="none" xmlns="http://www.w3.org/2000/svg">
<path fill-rule="evenodd" clip-rule="evenodd" d="M103.846 93.211C113.232 83.4205 119 70.1338 119 55.5C119 43.6407 115.212 32.666 108.78 23.72C100.539 15.1536 89.522 9.27677 77.1764 7.5364C97.1544 13.3961 112 35.3333 112 61.5C112 73.2903 108.986 84.2219 103.846 93.211ZM100.916 96.0488C107.207 86.6718 111 74.6604 111 61.5C111 31.7645 91.635 7.89539 67.8462 7.02461C62.7831 7.17551 57.8933 8.01699 53.2681 9.45809C35.2375 16.3403 22 36.9151 22 61.5C22 78.1259 28.0539 92.9178 37.5501 102.881C45.4981 107.412 54.6968 110 64.5 110C78.4982 110 91.2638 104.723 100.916 96.0488ZM40.0931 105.359C47.4589 108.972 55.7426 111 64.5 111C77.3066 111 89.1001 106.662 98.4914 99.3762C90.6651 109.277 79.8156 115.537 67.8462 115.975C62.7831 115.824 57.8934 114.983 53.2681 113.542C48.4869 111.717 44.0427 108.929 40.0931 105.359ZM34.5964 101.071C31.1846 98.8274 28.0397 96.2111 25.2199 93.28C18.7879 84.334 15 73.3593 15 61.5C15 40.7854 26.5567 22.7699 43.5744 13.5495C30.0713 23.1758 21 41.0457 21 61.5C21 76.9926 26.2041 91.0025 34.5964 101.071ZM52.85 8.5408C30.3331 15.613 14 36.6491 14 61.5C14 71.0497 16.4119 80.0361 20.6598 87.8832C13.961 78.8294 10 67.6273 10 55.5C10 25.4005 34.4005 1 64.5 1C80.1935 1 94.3377 7.63311 104.282 18.2487C94.766 10.5863 82.6686 6 69.5 6C68.9486 6 68.399 6.00804 67.8515 6.02401C67.4026 6.00804 66.9521 6 66.5 6C61.7443 6 57.159 6.88996 52.85 8.5408ZM36.9212 103.674C38.9868 105.831 41.2128 107.767 43.5744 109.451C38.3917 106.642 33.7155 103.019 29.718 98.7513C31.98 100.573 34.3878 102.22 36.9212 103.674ZM52.85 114.459C41.2991 110.831 31.3755 103.529 24.4494 93.9214C14.8807 83.9495 9 70.4115 9 55.5C9 24.8482 33.8482 0 64.5 0C83.0491 0 99.4728 9.09973 109.551 23.0786C119.119 33.0505 125 46.5885 125 61.5C125 92.1518 100.152 117 69.5 117C68.9486 117 68.399 116.992 67.8515 116.976C67.4026 116.992 66.9521 117 66.5 117C61.7443 117 57.1591 116.11 52.85 114.459ZM77.1764 115.464C103.641 111.733 124 88.994 124 61.5C124 49.3727 120.039 38.1706 113.34 29.1168C117.588 36.9639 120 45.9503 120 55.5C120 71.8558 112.925 86.5591 101.668 96.7166C95.4894 105.887 86.9466 112.598 77.1764 115.464ZM94.9608 241.699C87.3615 245.722 78.6968 248 69.5 248C65.5661 248 61.7295 247.583 58.032 246.791C37.0219 239.225 22 219.117 22 195.5C22 169.008 40.9027 146.93 65.9565 142.019C95.3827 142.791 119 166.887 119 196.5C119 215.317 109.464 231.906 94.9608 241.699ZM102.91 236.562C113.443 226.46 120 212.246 120 196.5C120 167.885 98.3441 144.328 70.5274 141.324C72.4889 141.11 74.4816 141 76.5 141C80.4339 141 84.2705 141.417 87.968 142.209C108.978 149.775 124 169.883 124 193.5C124 211.01 115.743 226.591 102.91 236.562ZM86.7426 246.269C81.315 248.042 75.5194 249 69.5 249C68.0755 249 66.6635 248.946 65.266 248.841C68.4328 249.505 71.7007 249.893 75.0435 249.981C79.1248 249.181 83.0429 247.925 86.7426 246.269ZM79.6346 249.911C85.3416 248.297 90.675 245.793 95.4752 242.559C113.038 233.24 125 214.767 125 193.5C125 172.113 112.903 153.552 95.1789 144.285C116.079 151.91 131 171.962 131 195.5C131 224.547 108.275 248.287 79.6346 249.911ZM75.1284 250.983C75.5843 250.994 76.0415 251 76.5 251C107.152 251 132 226.152 132 195.5C132 168.878 113.255 146.633 88.2439 141.245C82.3887 139.144 76.078 138 69.5 138C58.0295 138 47.3717 141.48 38.5248 147.441C20.9619 156.76 9 175.233 9 196.5C9 227.152 33.8482 252 64.5 252C68.135 252 71.6884 251.651 75.1284 250.983ZM70.4726 250.676C66.0579 250.2 61.7985 249.205 57.7561 247.755C32.7447 242.367 14 220.122 14 193.5C14 177.754 20.5572 163.54 31.0899 153.439C18.2571 163.409 10 178.99 10 196.5C10 226.6 34.4005 251 64.5 251C66.5184 251 68.5111 250.89 70.4726 250.676ZM39.0392 148.301C24.5361 158.094 15 174.683 15 193.5C15 217.038 29.9215 237.091 50.8211 244.715C33.0967 235.448 21 216.887 21 195.5C21 170.095 38.0696 148.677 61.3654 142.089C53.3347 142.544 45.7691 144.738 39.0392 148.301ZM65.8716 141.017C69.3116 140.349 72.865 140 76.5 140C77.9245 140 79.3365 140.054 80.734 140.159C77.1087 139.399 73.351 139 69.5 139C61.5773 139 54.0494 140.691 47.2574 143.731C52.685 141.958 58.4806 141 64.5 141C64.9585 141 65.4157 141.006 65.8716 141.017Z" fill="black"/>
</svg>
