<svg width="54" height="54" viewBox="0 0 54 54" fill="none" xmlns="http://www.w3.org/2000/svg">
<path fill-rule="evenodd" clip-rule="evenodd" d="M13 26C18.5228 26 23 21.5228 23 16C23 10.4772 18.5228 6 13 6C7.47715 6 3 10.4772 3 16C3 21.5228 7.47715 26 13 26ZM13 27C19.0751 27 24 22.0751 24 16C24 9.92487 19.0751 5 13 5C6.92487 5 2 9.92487 2 16C2 22.0751 6.92487 27 13 27Z" fill="black"/>
<path fill-rule="evenodd" clip-rule="evenodd" d="M13 48C18.5228 48 23 43.5229 23 38C23 32.4772 18.5228 28 13 28C7.47715 28 3 32.4772 3 38C3 43.5229 7.47715 48 13 48ZM13 49C19.0751 49 24 44.0751 24 38C24 31.9249 19.0751 27 13 27C6.92487 27 2 31.9249 2 38C2 44.0751 6.92487 49 13 49Z" fill="black"/>
<path fill-rule="evenodd" clip-rule="evenodd" d="M35 26C40.5229 26 45 21.5228 45 16C45 10.4772 40.5229 6 35 6C29.4772 6 25 10.4772 25 16C25 21.5228 29.4772 26 35 26ZM35 27C41.0751 27 46 22.0751 46 16C46 9.92487 41.0751 5 35 5C28.9249 5 24 9.92487 24 16C24 22.0751 28.9249 27 35 27Z" fill="black"/>
<path fill-rule="evenodd" clip-rule="evenodd" d="M35 48C40.5229 48 45 43.5229 45 38C45 32.4772 40.5229 28 35 28C29.4772 28 25 32.4772 25 38C25 43.5229 29.4772 48 35 48ZM35 49C41.0751 49 46 44.0751 46 38C46 31.9249 41.0751 27 35 27C28.9249 27 24 31.9249 24 38C24 44.0751 28.9249 49 35 49Z" fill="black"/>
</svg>
