<svg width="54" height="54" viewBox="0 0 54 54" fill="none" xmlns="http://www.w3.org/2000/svg">
<path fill-rule="evenodd" clip-rule="evenodd" d="M19 42C24.5228 42 29 37.5229 29 32C29 26.4772 24.5228 22 19 22C13.4772 22 9 26.4772 9 32C9 37.5229 13.4772 42 19 42ZM19 43C25.0751 43 30 38.0751 30 32C30 25.9249 25.0751 21 19 21C12.9249 21 8 25.9249 8 32C8 38.0751 12.9249 43 19 43Z" fill="black"/>
<path fill-rule="evenodd" clip-rule="evenodd" d="M8 48C11.866 48 15 44.866 15 41C15 37.134 11.866 34 8 34C4.13401 34 1 37.134 1 41C1 44.866 4.13401 48 8 48ZM8 49C12.4183 49 16 45.4183 16 41C16 36.5817 12.4183 33 8 33C3.58172 33 0 36.5817 0 41C0 45.4183 3.58172 49 8 49Z" fill="black"/>
<path fill-rule="evenodd" clip-rule="evenodd" d="M34 35C42.2843 35 49 28.2843 49 20C49 11.7157 42.2843 5 34 5C25.7157 5 19 11.7157 19 20C19 28.2843 25.7157 35 34 35ZM34 36C42.8366 36 50 28.8366 50 20C50 11.1634 42.8366 4 34 4C25.1634 4 18 11.1634 18 20C18 28.8366 25.1634 36 34 36Z" fill="black"/>
</svg>
