<svg width="54" height="54" viewBox="0 0 54 54" fill="none" xmlns="http://www.w3.org/2000/svg">
<path fill-rule="evenodd" clip-rule="evenodd" d="M23 49C35.1503 49 45 39.1503 45 27C45 14.8497 35.1503 5 23 5C10.8497 5 1 14.8497 1 27C1 39.1503 10.8497 49 23 49ZM23 50C35.7025 50 46 39.7025 46 27C46 14.2975 35.7025 4 23 4C10.2975 4 0 14.2975 0 27C0 39.7025 10.2975 50 23 50Z" fill="black"/>
<path fill-rule="evenodd" clip-rule="evenodd" d="M41 21C45.9706 21 50 16.9706 50 12C50 7.02944 45.9706 3 41 3C36.0294 3 32 7.02944 32 12C32 16.9706 36.0294 21 41 21ZM41 22C46.5228 22 51 17.5228 51 12C51 6.47715 46.5228 2 41 2C35.4772 2 31 6.47715 31 12C31 17.5228 35.4772 22 41 22Z" fill="black"/>
</svg>
