<svg display="none" xmlns="http://www.w3.org/2000/svg">
	<symbol id="logo" width="54" height="54" viewBox="0 0 54 54" fill="none" xmlns="http://www.w3.org/2000/svg">
	<path fill-rule="evenodd" clip-rule="evenodd" d="M32 29C36.9706 29 41 24.9706 41 20C41 15.0294 36.9706 11 32 11C27.0294 11 23 15.0294 23 20C23 24.9706 27.0294 29 32 29ZM32 30C37.5228 30 42 25.5228 42 20C42 14.4772 37.5228 10 32 10C26.4772 10 22 14.4772 22 20C22 25.5228 26.4772 30 32 30Z" fill="black"/>
	<path fill-rule="evenodd" clip-rule="evenodd" d="M30 37C38.2843 37 45 30.2843 45 22C45 13.7157 38.2843 7 30 7C21.7157 7 15 13.7157 15 22C15 30.2843 21.7157 37 30 37ZM30 38C38.8366 38 46 30.8366 46 22C46 13.1634 38.8366 6 30 6C21.1634 6 14 13.1634 14 22C14 30.8366 21.1634 38 30 38Z" fill="black"/>
	<path fill-rule="evenodd" clip-rule="evenodd" d="M25 51C38.2548 51 49 40.2548 49 27C49 13.7452 38.2548 3 25 3C11.7452 3 1 13.7452 1 27C1 40.2548 11.7452 51 25 51ZM25 52C38.8071 52 50 40.8071 50 27C50 13.1929 38.8071 2 25 2C11.1929 2 0 13.1929 0 27C0 40.8071 11.1929 52 25 52Z" fill="black"/>
	</symbol>

	<symbol id="brandbook" width="54" height="54" viewBox="0 0 54 54" fill="none" xmlns="http://www.w3.org/2000/svg">
	<path fill-rule="evenodd" clip-rule="evenodd" d="M13 26C18.5228 26 23 21.5228 23 16C23 10.4772 18.5228 6 13 6C7.47715 6 3 10.4772 3 16C3 21.5228 7.47715 26 13 26ZM13 27C19.0751 27 24 22.0751 24 16C24 9.92487 19.0751 5 13 5C6.92487 5 2 9.92487 2 16C2 22.0751 6.92487 27 13 27Z" fill="black"/>
	<path fill-rule="evenodd" clip-rule="evenodd" d="M13 48C18.5228 48 23 43.5229 23 38C23 32.4772 18.5228 28 13 28C7.47715 28 3 32.4772 3 38C3 43.5229 7.47715 48 13 48ZM13 49C19.0751 49 24 44.0751 24 38C24 31.9249 19.0751 27 13 27C6.92487 27 2 31.9249 2 38C2 44.0751 6.92487 49 13 49Z" fill="black"/>
	<path fill-rule="evenodd" clip-rule="evenodd" d="M35 26C40.5229 26 45 21.5228 45 16C45 10.4772 40.5229 6 35 6C29.4772 6 25 10.4772 25 16C25 21.5228 29.4772 26 35 26ZM35 27C41.0751 27 46 22.0751 46 16C46 9.92487 41.0751 5 35 5C28.9249 5 24 9.92487 24 16C24 22.0751 28.9249 27 35 27Z" fill="black"/>
	<path fill-rule="evenodd" clip-rule="evenodd" d="M35 48C40.5229 48 45 43.5229 45 38C45 32.4772 40.5229 28 35 28C29.4772 28 25 32.4772 25 38C25 43.5229 29.4772 48 35 48ZM35 49C41.0751 49 46 44.0751 46 38C46 31.9249 41.0751 27 35 27C28.9249 27 24 31.9249 24 38C24 44.0751 28.9249 49 35 49Z" fill="black"/>
	</symbol>

	<symbol id="express" width="54" height="54" viewBox="0 0 54 54" fill="none" xmlns="http://www.w3.org/2000/svg">
	<path fill-rule="evenodd" clip-rule="evenodd" d="M19 42C24.5228 42 29 37.5229 29 32C29 26.4772 24.5228 22 19 22C13.4772 22 9 26.4772 9 32C9 37.5229 13.4772 42 19 42ZM19 43C25.0751 43 30 38.0751 30 32C30 25.9249 25.0751 21 19 21C12.9249 21 8 25.9249 8 32C8 38.0751 12.9249 43 19 43Z" fill="black"/>
	<path fill-rule="evenodd" clip-rule="evenodd" d="M8 48C11.866 48 15 44.866 15 41C15 37.134 11.866 34 8 34C4.13401 34 1 37.134 1 41C1 44.866 4.13401 48 8 48ZM8 49C12.4183 49 16 45.4183 16 41C16 36.5817 12.4183 33 8 33C3.58172 33 0 36.5817 0 41C0 45.4183 3.58172 49 8 49Z" fill="black"/>
	<path fill-rule="evenodd" clip-rule="evenodd" d="M34 35C42.2843 35 49 28.2843 49 20C49 11.7157 42.2843 5 34 5C25.7157 5 19 11.7157 19 20C19 28.2843 25.7157 35 34 35ZM34 36C42.8366 36 50 28.8366 50 20C50 11.1634 42.8366 4 34 4C25.1634 4 18 11.1634 18 20C18 28.8366 25.1634 36 34 36Z" fill="black"/>
	</symbol>

	<symbol id="firmstyle" width="54" height="54" viewBox="0 0 54 54" fill="none" xmlns="http://www.w3.org/2000/svg">
	<path fill-rule="evenodd" clip-rule="evenodd" d="M23 49C35.1503 49 45 39.1503 45 27C45 14.8497 35.1503 5 23 5C10.8497 5 1 14.8497 1 27C1 39.1503 10.8497 49 23 49ZM23 50C35.7025 50 46 39.7025 46 27C46 14.2975 35.7025 4 23 4C10.2975 4 0 14.2975 0 27C0 39.7025 10.2975 50 23 50Z" fill="black"/>
	<path fill-rule="evenodd" clip-rule="evenodd" d="M41 21C45.9706 21 50 16.9706 50 12C50 7.02944 45.9706 3 41 3C36.0294 3 32 7.02944 32 12C32 16.9706 36.0294 21 41 21ZM41 22C46.5228 22 51 17.5228 51 12C51 6.47715 46.5228 2 41 2C35.4772 2 31 6.47715 31 12C31 17.5228 35.4772 22 41 22Z" fill="black"/>
	</symbol>

	<symbol id="logo-style" width="54" height="54" viewBox="0 0 54 54" fill="none" xmlns="http://www.w3.org/2000/svg">
	<path fill-rule="evenodd" clip-rule="evenodd" d="M23 49C35.1503 49 45 39.1503 45 27C45 14.8497 35.1503 5 23 5C10.8497 5 1 14.8497 1 27C1 39.1503 10.8497 49 23 49ZM23 50C35.7025 50 46 39.7025 46 27C46 14.2975 35.7025 4 23 4C10.2975 4 0 14.2975 0 27C0 39.7025 10.2975 50 23 50Z" fill="black"/>
	<path fill-rule="evenodd" clip-rule="evenodd" d="M31 49C43.1503 49 53 39.1503 53 27C53 14.8497 43.1503 5 31 5C18.8497 5 9 14.8497 9 27C9 39.1503 18.8497 49 31 49ZM31 50C43.7025 50 54 39.7025 54 27C54 14.2975 43.7025 4 31 4C18.2975 4 8 14.2975 8 27C8 39.7025 18.2975 50 31 50Z" fill="black"/>
	</symbol>

</svg>
