<svg width="54" height="54" viewBox="0 0 54 54" fill="none" xmlns="http://www.w3.org/2000/svg">
<path fill-rule="evenodd" clip-rule="evenodd" d="M32 29C36.9706 29 41 24.9706 41 20C41 15.0294 36.9706 11 32 11C27.0294 11 23 15.0294 23 20C23 24.9706 27.0294 29 32 29ZM32 30C37.5228 30 42 25.5228 42 20C42 14.4772 37.5228 10 32 10C26.4772 10 22 14.4772 22 20C22 25.5228 26.4772 30 32 30Z" fill="black"/>
<path fill-rule="evenodd" clip-rule="evenodd" d="M30 37C38.2843 37 45 30.2843 45 22C45 13.7157 38.2843 7 30 7C21.7157 7 15 13.7157 15 22C15 30.2843 21.7157 37 30 37ZM30 38C38.8366 38 46 30.8366 46 22C46 13.1634 38.8366 6 30 6C21.1634 6 14 13.1634 14 22C14 30.8366 21.1634 38 30 38Z" fill="black"/>
<path fill-rule="evenodd" clip-rule="evenodd" d="M25 51C38.2548 51 49 40.2548 49 27C49 13.7452 38.2548 3 25 3C11.7452 3 1 13.7452 1 27C1 40.2548 11.7452 51 25 51ZM25 52C38.8071 52 50 40.8071 50 27C50 13.1929 38.8071 2 25 2C11.1929 2 0 13.1929 0 27C0 40.8071 11.1929 52 25 52Z" fill="black"/>
</svg>
