<svg width="54" height="54" viewBox="0 0 54 54" fill="none" xmlns="http://www.w3.org/2000/svg">
<path fill-rule="evenodd" clip-rule="evenodd" d="M23 49C35.1503 49 45 39.1503 45 27C45 14.8497 35.1503 5 23 5C10.8497 5 1 14.8497 1 27C1 39.1503 10.8497 49 23 49ZM23 50C35.7025 50 46 39.7025 46 27C46 14.2975 35.7025 4 23 4C10.2975 4 0 14.2975 0 27C0 39.7025 10.2975 50 23 50Z" fill="black"/>
<path fill-rule="evenodd" clip-rule="evenodd" d="M31 49C43.1503 49 53 39.1503 53 27C53 14.8497 43.1503 5 31 5C18.8497 5 9 14.8497 9 27C9 39.1503 18.8497 49 31 49ZM31 50C43.7025 50 54 39.7025 54 27C54 14.2975 43.7025 4 31 4C18.2975 4 8 14.2975 8 27C8 39.7025 18.2975 50 31 50Z" fill="black"/>
</svg>
