<svg width="88" height="46" viewBox="0 0 88 46" fill="none" xmlns="http://www.w3.org/2000/svg">
<g clip-path="url(#clip0_358_6149)">
<path d="M26.557 19.3603C26.6888 19.4925 26.8645 19.5807 27.0842 19.5807C27.3258 19.5807 27.5015 19.4925 27.6553 19.3603L27.8091 19.5146C27.6114 19.7129 27.4137 19.8011 27.1062 19.8011C26.8206 19.8011 26.6009 19.6909 26.4252 19.5366C26.2495 19.3603 26.1396 19.1178 26.1396 18.8533C26.1396 18.5888 26.2495 18.3463 26.4032 18.1921C26.579 18.0157 26.8206 17.9276 27.1062 17.9276C27.4137 17.9276 27.6114 18.0157 27.8091 18.1921L27.6553 18.3463C27.5015 18.2141 27.3478 18.1259 27.1062 18.1259C26.9085 18.1259 26.7327 18.1921 26.6009 18.3243C26.4691 18.4566 26.3813 18.6329 26.3813 18.8533C26.3593 19.0517 26.4472 19.228 26.557 19.3603Z" fill="#2D2929"/>
<path d="M29.8959 19.3603C30.0277 19.5146 30.2034 19.5807 30.423 19.5807C30.6207 19.5807 30.8184 19.4925 30.9502 19.3603C31.0601 19.228 31.1479 19.0517 31.1479 18.8533C31.1479 18.6329 31.082 18.4566 30.9502 18.3464C30.8184 18.2141 30.6427 18.1259 30.423 18.1259C30.2254 18.1259 30.0277 18.2141 29.8959 18.3464C29.786 18.4786 29.6982 18.6549 29.6982 18.8533C29.7201 19.0517 29.786 19.228 29.8959 19.3603ZM31.126 18.17C31.3017 18.3464 31.3896 18.5888 31.3896 18.8533C31.3896 19.1178 31.3017 19.3382 31.126 19.5146C30.9502 19.6909 30.7086 19.8011 30.423 19.8011C30.1375 19.8011 29.8739 19.6909 29.6982 19.4925C29.5444 19.3162 29.4565 19.0958 29.4565 18.8533C29.4565 18.5888 29.5444 18.3684 29.7201 18.1921C29.8959 18.0157 30.1375 17.9055 30.423 17.9055C30.7086 17.9055 30.9502 17.9937 31.126 18.17Z" fill="#2D2929"/>
<path d="M34.2889 19.4484C34.3768 19.3823 34.4207 19.2942 34.4207 19.1619C34.4207 19.0737 34.3988 19.0076 34.3329 18.9415C34.267 18.8754 34.1791 18.8313 34.0693 18.8313H33.4103V18.6109H34.0034C34.1132 18.6109 34.1791 18.5668 34.223 18.5227C34.267 18.4786 34.2889 18.4125 34.2889 18.3684C34.2889 18.2802 34.245 18.2141 34.1791 18.17C34.0693 18.1039 33.8935 18.0819 33.7837 18.0819C33.608 18.0819 33.4103 18.126 33.2126 18.1921L33.1247 18.0157C33.3224 17.9055 33.5421 17.8615 33.7837 17.8615C33.9594 17.8615 34.2011 17.9055 34.3548 18.0157C34.4647 18.0819 34.5306 18.1921 34.5306 18.3464C34.5306 18.4125 34.5086 18.4786 34.4647 18.5447C34.4427 18.5888 34.3988 18.6329 34.3329 18.677V18.699C34.4207 18.7431 34.4866 18.7872 34.5525 18.8533C34.6184 18.9415 34.6623 19.0297 34.6623 19.1619C34.6623 19.3382 34.5965 19.4925 34.4427 19.6027C34.3109 19.7129 34.1132 19.7791 33.8057 19.7791C33.4982 19.7791 33.2565 19.735 33.0369 19.6027L33.1247 19.4044C33.3664 19.5146 33.564 19.5587 33.8057 19.5587C34.0253 19.5807 34.1791 19.5366 34.2889 19.4484Z" fill="#2D2929"/>
<path d="M37.1445 18.148L36.9908 19.1839C36.9688 19.3382 36.9249 19.4484 36.837 19.5586H37.9353V18.17H37.1445V18.148ZM38.1769 17.9276V19.5366H38.3746V20.1317H38.1769L38.133 19.757H36.6393L36.5954 20.1317H36.3977V19.5366C36.5295 19.5366 36.5954 19.4925 36.6613 19.4044C36.7272 19.3382 36.7492 19.228 36.7711 19.0958L36.9469 17.9055H38.1769V17.9276Z" fill="#2D2929"/>
<path d="M40.6371 19.1839H41.5377L41.1203 18.17H41.0764L40.6371 19.1839ZM41.2521 17.9276L42.0649 19.757H41.8013L41.6475 19.4043H40.5712L40.4174 19.757H40.1538L40.9666 17.9276H41.2521Z" fill="#2D2929"/>
<path d="M45.1183 19.0076C45.0524 18.9415 44.9645 18.8974 44.8327 18.8974H44.1078V19.5586H44.8108C44.9425 19.5586 45.0304 19.5146 45.0963 19.4484C45.1402 19.3823 45.1842 19.3162 45.1842 19.228C45.1842 19.1178 45.1622 19.0517 45.1183 19.0076ZM45.0084 18.2141C44.9645 18.17 44.8986 18.148 44.7668 18.148H44.1078V18.677H44.8108C44.9206 18.677 44.9865 18.6329 45.0084 18.5888C45.0524 18.5447 45.0743 18.4786 45.0743 18.4125C45.0743 18.3463 45.0524 18.2582 45.0084 18.2141ZM43.8662 19.757V17.9276H44.8108C44.9645 17.9276 45.1183 17.9716 45.2061 18.0818C45.294 18.17 45.316 18.2582 45.316 18.3904C45.316 18.4566 45.294 18.5447 45.272 18.5888C45.2281 18.6549 45.1842 18.699 45.1402 18.7211V18.7431C45.2281 18.7872 45.294 18.8313 45.3599 18.9194C45.4258 19.0076 45.4478 19.0958 45.4478 19.206C45.4478 19.3603 45.3819 19.4925 45.294 19.5807C45.1842 19.6909 45.0304 19.735 44.8547 19.735H43.8662V19.757Z" fill="#2D2929"/>
<path d="M47.6444 19.1839H48.545L48.1276 18.17H48.0837L47.6444 19.1839ZM48.2594 17.9276L49.0722 19.757H48.8086L48.6548 19.4043H47.5785L47.4247 19.757H47.1611L47.9739 17.9276H48.2594Z" fill="#2D2929"/>
<path d="M51.1588 18.8533C51.2247 18.9635 51.3565 19.0296 51.5542 19.0296H52.1693V18.148H51.5542C51.3785 18.148 51.2467 18.2141 51.1808 18.3243C51.1149 18.3904 51.0929 18.4786 51.0929 18.5888C51.0929 18.699 51.1149 18.7872 51.1588 18.8533ZM51.0051 18.148C51.1369 18.0157 51.3126 17.9276 51.5542 17.9276H52.4109V19.757H52.1693V19.228H51.4883L51.1369 19.757H50.8513L51.2467 19.1839C51.1149 19.1398 51.027 19.0517 50.9392 18.9415C50.8733 18.8313 50.8293 18.7211 50.8293 18.5668C50.8293 18.4125 50.8952 18.2582 51.0051 18.148Z" fill="#2D2929"/>
<path d="M57.2215 19.3603C57.3533 19.5146 57.5291 19.5807 57.7487 19.5807C57.9464 19.5807 58.1441 19.4925 58.2759 19.3603C58.3857 19.228 58.4736 19.0517 58.4736 18.8533C58.4736 18.6329 58.4077 18.4566 58.2759 18.3464C58.1441 18.2141 57.9684 18.1259 57.7487 18.1259C57.551 18.1259 57.3533 18.2141 57.2215 18.3464C57.1117 18.4786 57.0238 18.6549 57.0238 18.8533C57.0238 19.0517 57.0897 19.228 57.2215 19.3603ZM58.4297 18.17C58.6054 18.3464 58.6933 18.5888 58.6933 18.8533C58.6933 19.1178 58.6054 19.3382 58.4297 19.5146C58.2539 19.6909 58.0123 19.8011 57.7268 19.8011C57.4412 19.8011 57.1776 19.6909 57.0019 19.4925C56.8481 19.3162 56.7603 19.0958 56.7603 18.8533C56.7603 18.5888 56.8481 18.3684 57.0238 18.1921C57.1996 18.0157 57.4412 17.9055 57.7268 17.9055C58.0343 17.9055 58.2759 17.9937 58.4297 18.17Z" fill="#2D2929"/>
<path d="M60.9337 19.3603C61.0655 19.4925 61.2412 19.5807 61.4609 19.5807C61.7025 19.5807 61.8782 19.4925 62.032 19.3603L62.1858 19.5146C61.9881 19.7129 61.7904 19.8011 61.4829 19.8011C61.1973 19.8011 60.9776 19.6909 60.8019 19.5366C60.6262 19.3603 60.5164 19.1178 60.5164 18.8533C60.5164 18.5888 60.6262 18.3463 60.78 18.1921C60.9557 18.0157 61.1973 17.9276 61.4829 17.9276C61.7904 17.9276 61.9881 18.0157 62.1858 18.1921L62.032 18.3463C61.8782 18.2141 61.7245 18.1259 61.4829 18.1259C61.2852 18.1259 61.1094 18.1921 60.9776 18.3243C60.8458 18.4566 60.758 18.6329 60.758 18.8533C60.736 19.0517 60.8019 19.228 60.9337 19.3603Z" fill="#2D2929"/>
<path d="M65.5686 17.9276V19.757H65.327V18.8753H64.2287V19.757H63.9651V17.9276H64.2287V18.677H65.327V17.9276H65.5686Z" fill="#2D2929"/>
<path d="M67.8531 19.3603C67.9849 19.5146 68.1607 19.5807 68.3803 19.5807C68.578 19.5807 68.7757 19.4925 68.9075 19.3603C69.0173 19.228 69.1052 19.0517 69.1052 18.8533C69.1052 18.6329 69.0393 18.4566 68.9075 18.3464C68.7757 18.2141 68.6 18.1259 68.3803 18.1259C68.1826 18.1259 67.9849 18.2141 67.8531 18.3464C67.7433 18.4786 67.6554 18.6549 67.6554 18.8533C67.6554 19.0517 67.7433 19.228 67.8531 19.3603ZM69.0613 18.17C69.237 18.3464 69.3249 18.5888 69.3249 18.8533C69.3249 19.1178 69.237 19.3382 69.0613 19.5146C68.8855 19.6909 68.6439 19.8011 68.3584 19.8011C68.0728 19.8011 67.8092 19.6909 67.6335 19.4925C67.4797 19.3162 67.3918 19.0958 67.3918 18.8533C67.3918 18.5888 67.4797 18.3684 67.6554 18.1921C67.8312 18.0157 68.0728 17.9055 68.3584 17.9055C68.6659 17.9055 68.9075 17.9937 69.0613 18.17Z" fill="#2D2929"/>
<path d="M72.444 19.0076C72.3781 18.9415 72.2902 18.8974 72.1584 18.8974H71.4335V19.5586H72.1364C72.2682 19.5586 72.3561 19.5146 72.422 19.4484C72.4659 19.3823 72.5099 19.3162 72.5099 19.228C72.5099 19.1178 72.4879 19.0517 72.444 19.0076ZM72.3341 18.2141C72.2902 18.17 72.2243 18.148 72.0925 18.148H71.4335V18.677H72.1364C72.2463 18.677 72.3122 18.6329 72.3341 18.5888C72.3781 18.5447 72.4 18.4786 72.4 18.4125C72.4 18.3463 72.3781 18.2582 72.3341 18.2141ZM71.1919 19.757V17.9276H72.1364C72.2902 17.9276 72.444 17.9716 72.5318 18.0818C72.6197 18.17 72.6417 18.2582 72.6417 18.3904C72.6417 18.4566 72.6197 18.5447 72.5977 18.5888C72.5538 18.6549 72.5099 18.699 72.4659 18.7211V18.7431C72.5538 18.7872 72.6197 18.8313 72.6856 18.9194C72.7515 19.0076 72.7735 19.0958 72.7735 19.206C72.7735 19.3603 72.7076 19.4925 72.6197 19.5807C72.5099 19.6909 72.3561 19.735 72.1804 19.735H71.1919V19.757Z" fill="#2D2929"/>
<path d="M76.5956 19.757H76.354V17.9276H76.5956V19.757ZM75.8048 18.8092C75.7389 18.7211 75.6291 18.677 75.4534 18.677H74.8822V19.5586H75.4753C75.6291 19.5586 75.717 19.5146 75.8048 19.4264C75.8927 19.3603 75.9366 19.228 75.9366 19.0958C75.9147 18.9856 75.8707 18.8753 75.8048 18.8092ZM75.9586 19.5807C75.8268 19.7129 75.673 19.7791 75.4534 19.7791H74.6187V17.9496H74.8603V18.4566H75.4534C75.673 18.4566 75.8488 18.5447 75.9806 18.677C76.0904 18.7872 76.1563 18.9415 76.1563 19.1178C76.1563 19.2941 76.0904 19.4484 75.9586 19.5807Z" fill="#2D2929"/>
<path d="M14.2119 15.9438L21.6804 17.9937V20.815L14.2119 18.7651V15.9438Z" fill="#2D2929"/>
<path d="M14.234 15.9659L0.0878906 19.8011V20.7048L14.234 16.8696V15.9659Z" fill="#2D2929"/>
<path d="M14.2119 19.6689L21.6804 21.7188V24.5401L14.2119 22.4902V19.6689Z" fill="#2D2929"/>
<path d="M14.234 19.6909L0.0878906 23.5262V24.4299L14.234 20.5946V19.6909Z" fill="#2D2929"/>
<path d="M14.2119 23.3939L21.6804 25.4438V28.2651L14.2119 26.2153V23.3939Z" fill="#2D2929"/>
<path d="M14.234 23.416L0.0878906 27.2512V28.1549L14.234 24.3197V23.416Z" fill="#2D2929"/>
<path d="M30.4449 23.7686V21.1236H31.8068V23.7686H32.3999C32.6196 23.7686 32.7514 23.7245 32.8612 23.6805C32.9271 23.6364 32.993 23.5703 33.0369 23.46L33.7179 22.0494C33.8716 21.7408 34.1352 21.4322 34.3988 21.2779C34.6624 21.1236 35.0139 21.0355 35.3873 21.0355C35.6729 21.0355 35.9145 21.0575 36.244 21.1236L36.1122 22.2918H35.6729C35.4971 22.2918 35.3214 22.3139 35.1896 22.38C35.0798 22.4461 34.9919 22.5343 34.926 22.6445L34.267 23.967C34.1792 24.0993 34.0913 24.2535 34.0034 24.3417L36.3318 28.0888H34.7063L32.8612 24.9589C32.7514 25.003 32.6196 25.003 32.4878 25.003H31.8288V28.0888H30.4669V25.003H29.8079C29.6761 25.003 29.5443 24.9809 29.4345 24.9589L27.5893 28.0888H25.9419L28.2703 24.3417C28.1824 24.2535 28.0946 24.0993 28.0067 23.967L27.3477 22.6445C27.2818 22.5343 27.2159 22.4461 27.0841 22.38C26.9523 22.2918 26.7766 22.2918 26.6009 22.2918H26.1616L26.0298 21.1236C26.3373 21.0575 26.6009 21.0355 26.8864 21.0355C27.2599 21.0355 27.6113 21.1236 27.8749 21.2779C28.1605 21.4322 28.4021 21.7408 28.5559 22.0494L29.2368 23.46C29.2807 23.5703 29.3466 23.6364 29.4125 23.6805C29.5224 23.7466 29.6761 23.7686 29.8738 23.7686H30.4449V23.7686Z" fill="#2D2929"/>
<path d="M38.3307 25.9507L42.0868 21.1236H43.3389V28.1329H41.999V23.2837L38.2208 28.1329H36.9907V21.1236H38.3307V25.9507Z" fill="#2D2929"/>
<path d="M51.2468 21.1236V28.1329H49.8849V22.402H47.4467L46.8756 26.5679C46.8097 27.0969 46.612 27.4936 46.3264 27.7802C46.0189 28.0667 45.6015 28.199 45.0744 28.199C44.635 28.199 44.3495 28.1549 43.9102 27.9786L44.2177 26.8104C44.5032 26.8985 44.657 26.9206 44.8767 26.9206C45.0963 26.9206 45.2721 26.8544 45.3819 26.7663C45.4697 26.6781 45.5356 26.5018 45.5796 26.2593L46.2825 21.1677H51.2468V21.1236Z" fill="#2D2929"/>
<path d="M54.0585 26.2813C54.5198 26.7442 55.1128 26.9867 55.7279 26.9867C56.4967 26.9867 57.1337 26.7001 57.7707 26.105L58.6054 27.0308C57.7268 27.9124 56.936 28.2651 55.7279 28.2651C54.6516 28.2651 53.751 27.9124 53.092 27.2512C52.433 26.5899 52.0376 25.6862 52.0376 24.6062C52.0376 23.5702 52.411 22.7106 53.07 22.0493C53.729 21.3881 54.6296 20.9913 55.7279 20.9913C56.936 20.9913 57.7268 21.344 58.6054 22.1816L57.7707 23.1294C57.1117 22.5122 56.4967 22.2477 55.7279 22.2477C55.1128 22.2477 54.5417 22.4902 54.1244 22.909C53.707 23.3277 53.4434 23.9449 53.4434 24.6062C53.4215 25.3335 53.6851 25.9066 54.0585 26.2813Z" fill="#2D2929"/>
<path d="M59.0886 21.1236H65.4807V22.38H62.9546V28.1329H61.6147V22.38H59.0886V21.1236Z" fill="#2D2929"/>
<path d="M70.3793 24.5841C70.599 24.3417 70.7088 24.0551 70.7088 23.7025C70.7088 23.2837 70.599 22.9971 70.4013 22.7767C70.1816 22.5122 69.7862 22.402 69.3469 22.402H67.4798V25.0029H69.4348C69.8302 25.0029 70.1597 24.8486 70.3793 24.5841ZM71.3458 25.5319C70.8406 26.0168 70.2036 26.2813 69.4568 26.2813H67.5018V28.1329H66.074V21.1236H69.4568C70.2915 21.1236 71.0163 21.4763 71.5216 22.0714C71.873 22.5343 72.1146 23.0412 72.1146 23.7245C72.1366 24.4299 71.8071 25.0691 71.3458 25.5319Z" fill="#2D2929"/>
<path d="M74.6407 26.2593C75.0581 26.7001 75.6512 26.9867 76.3102 26.9867C76.9692 26.9867 77.5622 26.7222 77.9796 26.2813C78.353 25.8626 78.5946 25.3336 78.5946 24.6282C78.5946 23.9229 78.375 23.3498 77.9796 22.931C77.5622 22.5122 77.0131 22.2698 76.3102 22.2698C75.6512 22.2698 75.0581 22.5122 74.6407 22.9751C74.2673 23.3939 74.0037 23.9449 74.0037 24.6503C74.0037 25.2895 74.2454 25.8405 74.6407 26.2593ZM78.9241 22.0273C79.627 22.7106 80.0005 23.6143 80.0005 24.6282C80.0005 25.6421 79.649 26.5238 78.99 27.163C78.331 27.8463 77.4304 28.2431 76.3102 28.2431C75.1899 28.2431 74.2234 27.8022 73.5864 27.1189C72.9933 26.5018 72.6199 25.576 72.6199 24.6282C72.6199 23.6584 72.9713 22.7767 73.5864 22.1375C74.2454 21.4322 75.1899 21.0134 76.2882 21.0134C77.3865 20.9913 78.2871 21.3881 78.9241 22.0273Z" fill="#2D2929"/>
<path d="M85.8874 19.4484C85.7556 19.8011 85.47 20.0656 85.2064 20.264C84.8989 20.5064 84.4815 20.6166 84.0642 20.6166C83.6908 20.6166 83.2954 20.5064 82.9659 20.264C82.7023 20.0876 82.4167 19.8011 82.2849 19.4484L83.2295 18.9635C83.3173 19.0958 83.4052 19.228 83.515 19.3382C83.6688 19.4925 83.8445 19.5586 84.0642 19.5586C84.2619 19.5586 84.4376 19.4925 84.6133 19.3823C84.7451 19.2941 84.855 19.1398 84.9209 18.9635L85.8874 19.4484ZM82.1092 25.9507L85.8654 21.1236H87.1175V28.1328H85.7775V23.3057L81.9994 28.1328H80.7473V21.1236H82.0872V25.9507H82.1092Z" fill="#2D2929"/>
</g>
<defs>
<clipPath id="clip0_358_6149">
<rect width="87.4248" height="13.225" fill="white" transform="translate(0 15.525)"/>
</clipPath>
</defs>
</svg>
