<svg width="152" height="80" viewBox="0 0 152 80" fill="none" xmlns="http://www.w3.org/2000/svg">
<path d="M45.871 33.67C46.0987 33.9 46.4022 34.0533 46.7816 34.0533C47.199 34.0533 47.5025 33.9 47.7681 33.67L48.0337 33.9383C47.6922 34.2833 47.3507 34.4367 46.8196 34.4367C46.3263 34.4367 45.9469 34.245 45.6434 33.9767C45.3398 33.67 45.1501 33.2483 45.1501 32.7883C45.1501 32.3283 45.3399 31.9067 45.6054 31.6383C45.909 31.3317 46.3263 31.1783 46.8196 31.1783C47.3507 31.1783 47.6922 31.3317 48.0337 31.6383L47.7681 31.9067C47.5025 31.6767 47.2369 31.5233 46.8196 31.5233C46.4781 31.5233 46.1746 31.6383 45.9469 31.8683C45.7193 32.0983 45.5675 32.405 45.5675 32.7883C45.5296 33.1333 45.6813 33.44 45.871 33.67Z" fill="#2D2929"/>
<path d="M51.6381 33.67C51.8657 33.9383 52.1693 34.0533 52.5487 34.0533C52.8902 34.0533 53.2316 33.9 53.4593 33.67C53.649 33.44 53.8007 33.1333 53.8007 32.7883C53.8007 32.405 53.6869 32.0983 53.4593 31.9067C53.2316 31.6767 52.9281 31.5233 52.5487 31.5233C52.2072 31.5233 51.8657 31.6767 51.6381 31.9067C51.4484 32.1367 51.2966 32.4433 51.2966 32.7883C51.3346 33.1333 51.4484 33.44 51.6381 33.67ZM53.7628 31.6C54.0663 31.9067 54.2181 32.3283 54.2181 32.7883C54.2181 33.2483 54.0663 33.6317 53.7628 33.9383C53.4593 34.245 53.0419 34.4367 52.5487 34.4367C52.0555 34.4367 51.6002 34.245 51.2966 33.9C51.031 33.5933 50.8793 33.21 50.8793 32.7883C50.8793 32.3283 51.031 31.945 51.3346 31.6383C51.6381 31.3317 52.0555 31.14 52.5487 31.14C53.0419 31.14 53.4593 31.2933 53.7628 31.6Z" fill="#2D2929"/>
<path d="M59.2264 33.8234C59.3781 33.7084 59.454 33.555 59.454 33.325C59.454 33.1717 59.4161 33.0567 59.3023 32.9417C59.1884 32.8267 59.0367 32.75 58.847 32.75H57.7087V32.3667H58.7331C58.9228 32.3667 59.0367 32.29 59.1126 32.2134C59.1884 32.1367 59.2264 32.0217 59.2264 31.945C59.2264 31.7917 59.1505 31.6767 59.0367 31.6C58.847 31.485 58.5434 31.4467 58.3537 31.4467C58.0502 31.4467 57.7087 31.5234 57.3673 31.6384L57.2155 31.3317C57.557 31.14 57.9364 31.0634 58.3537 31.0634C58.6573 31.0634 59.0746 31.14 59.3402 31.3317C59.5299 31.4467 59.6437 31.6384 59.6437 31.9067C59.6437 32.0217 59.6058 32.1367 59.5299 32.2517C59.492 32.3284 59.4161 32.405 59.3023 32.4817V32.52C59.454 32.5967 59.5678 32.6734 59.6817 32.7884C59.7955 32.9417 59.8714 33.095 59.8714 33.325C59.8714 33.6317 59.7576 33.9 59.492 34.0917C59.2643 34.2834 58.9228 34.3984 58.3917 34.3984C57.8605 34.3984 57.4431 34.3217 57.0637 34.0917L57.2155 33.7467C57.6328 33.9384 57.9743 34.015 58.3917 34.015C58.7711 34.0534 59.0367 33.9767 59.2264 33.8234Z" fill="#2D2929"/>
<path d="M64.1588 31.5617L63.8932 33.3633C63.8552 33.6317 63.7794 33.8233 63.6276 34.015H65.5247V31.6H64.1588V31.5617ZM65.942 31.1783V33.9767H66.2835V35.0117H65.942L65.8661 34.36H63.2861L63.2102 35.0117H62.8688V33.9767C63.0964 33.9767 63.2102 33.9 63.3241 33.7467C63.4379 33.6317 63.4758 33.44 63.5138 33.21L63.8173 31.14H65.942V31.1783Z" fill="#2D2929"/>
<path d="M70.1915 33.3633H71.7471L71.0262 31.6H70.9504L70.1915 33.3633ZM71.2539 31.1783L72.6577 34.36H72.2024L71.9368 33.7467H70.0777L69.8121 34.36H69.3568L70.7606 31.1783H71.2539Z" fill="#2D2929"/>
<path d="M77.9315 33.0567C77.8176 32.9417 77.6659 32.865 77.4382 32.865H76.1861V34.015H77.4003C77.6279 34.015 77.7797 33.9383 77.8935 33.8233C77.9694 33.7083 78.0453 33.5933 78.0453 33.44C78.0453 33.2483 78.0073 33.1333 77.9315 33.0567ZM77.7417 31.6767C77.6659 31.6 77.552 31.5617 77.3244 31.5617H76.1861V32.4817H77.4003C77.59 32.4817 77.7038 32.405 77.7417 32.3283C77.8176 32.2517 77.8556 32.1367 77.8556 32.0217C77.8556 31.9067 77.8176 31.7533 77.7417 31.6767ZM75.7688 34.36V31.1783H77.4003C77.6659 31.1783 77.9315 31.255 78.0832 31.4467C78.235 31.6 78.2729 31.7533 78.2729 31.9833C78.2729 32.0983 78.235 32.2517 78.1971 32.3283C78.1212 32.4433 78.0453 32.52 77.9694 32.5583V32.5967C78.1212 32.6733 78.235 32.75 78.3488 32.9033C78.4626 33.0567 78.5006 33.21 78.5006 33.4017C78.5006 33.67 78.3868 33.9 78.235 34.0533C78.0453 34.245 77.7797 34.3217 77.4762 34.3217H75.7688V34.36Z" fill="#2D2929"/>
<path d="M82.2948 33.3633H83.8504L83.1295 31.6H83.0536L82.2948 33.3633ZM83.3571 31.1783L84.761 34.36H84.3057L84.0401 33.7467H82.181L81.9154 34.36H81.4601L82.8639 31.1783H83.3571Z" fill="#2D2929"/>
<path d="M88.3654 32.7883C88.4792 32.98 88.7069 33.095 89.0483 33.095H90.1107V31.5617H89.0483C88.7448 31.5617 88.5172 31.6767 88.4033 31.8683C88.2895 31.9833 88.2516 32.1367 88.2516 32.3283C88.2516 32.52 88.2895 32.6733 88.3654 32.7883ZM88.0998 31.5617C88.3275 31.3317 88.631 31.1783 89.0483 31.1783H90.5281V34.36H90.1107V33.44H88.9345L88.3274 34.36H87.8342L88.5171 33.3633C88.2895 33.2867 88.1377 33.1333 87.986 32.9417C87.8721 32.75 87.7963 32.5583 87.7963 32.29C87.7963 32.0217 87.9101 31.7533 88.0998 31.5617Z" fill="#2D2929"/>
<path d="M98.8372 33.67C99.0648 33.9383 99.3684 34.0533 99.7478 34.0533C100.089 34.0533 100.431 33.9 100.658 33.67C100.848 33.44 101 33.1333 101 32.7883C101 32.405 100.886 32.0983 100.658 31.9067C100.431 31.6767 100.127 31.5233 99.7478 31.5233C99.4063 31.5233 99.0648 31.6767 98.8372 31.9067C98.6475 32.1367 98.4957 32.4433 98.4957 32.7883C98.4957 33.1333 98.6095 33.44 98.8372 33.67ZM100.924 31.6C101.227 31.9067 101.379 32.3283 101.379 32.7883C101.379 33.2483 101.227 33.6317 100.924 33.9383C100.62 34.245 100.203 34.4367 99.7098 34.4367C99.2166 34.4367 98.7613 34.245 98.4578 33.9C98.1922 33.5933 98.0404 33.21 98.0404 32.7883C98.0404 32.3283 98.1922 31.945 98.4957 31.6383C98.7992 31.3317 99.2166 31.14 99.7098 31.14C100.241 31.14 100.658 31.2933 100.924 31.6Z" fill="#2D2929"/>
<path d="M105.249 33.67C105.477 33.9 105.781 34.0533 106.16 34.0533C106.577 34.0533 106.881 33.9 107.146 33.67L107.412 33.9383C107.071 34.2833 106.729 34.4367 106.198 34.4367C105.705 34.4367 105.325 34.245 105.022 33.9767C104.718 33.67 104.528 33.2483 104.528 32.7883C104.528 32.3283 104.718 31.9067 104.984 31.6383C105.287 31.3317 105.705 31.1783 106.198 31.1783C106.729 31.1783 107.071 31.3317 107.412 31.6383L107.146 31.9067C106.881 31.6767 106.615 31.5233 106.198 31.5233C105.856 31.5233 105.553 31.6383 105.325 31.8683C105.098 32.0983 104.946 32.405 104.946 32.7883C104.908 33.1333 105.022 33.44 105.249 33.67Z" fill="#2D2929"/>
<path d="M113.255 31.1783V34.36H112.837V32.8267H110.94V34.36H110.485V31.1783H110.94V32.4817H112.837V31.1783H113.255Z" fill="#2D2929"/>
<path d="M117.201 33.67C117.428 33.9383 117.732 34.0533 118.111 34.0533C118.453 34.0533 118.794 33.9 119.022 33.67C119.212 33.44 119.363 33.1333 119.363 32.7883C119.363 32.405 119.25 32.0983 119.022 31.9067C118.794 31.6767 118.491 31.5233 118.111 31.5233C117.77 31.5233 117.428 31.6767 117.201 31.9067C117.011 32.1367 116.859 32.4433 116.859 32.7883C116.859 33.1333 117.011 33.44 117.201 33.67ZM119.288 31.6C119.591 31.9067 119.743 32.3283 119.743 32.7883C119.743 33.2483 119.591 33.6317 119.288 33.9383C118.984 34.245 118.567 34.4367 118.073 34.4367C117.58 34.4367 117.125 34.245 116.821 33.9C116.556 33.5933 116.404 33.21 116.404 32.7883C116.404 32.3283 116.556 31.945 116.859 31.6383C117.163 31.3317 117.58 31.14 118.073 31.14C118.605 31.14 119.022 31.2933 119.288 31.6Z" fill="#2D2929"/>
<path d="M125.131 33.0567C125.017 32.9417 124.865 32.865 124.637 32.865H123.385V34.015H124.599C124.827 34.015 124.979 33.9383 125.093 33.8233C125.169 33.7083 125.244 33.5933 125.244 33.44C125.244 33.2483 125.206 33.1333 125.131 33.0567ZM124.941 31.6767C124.865 31.6 124.751 31.5617 124.524 31.5617H123.385V32.4817H124.599C124.789 32.4817 124.903 32.405 124.941 32.3283C125.017 32.2517 125.055 32.1367 125.055 32.0217C125.055 31.9067 125.017 31.7533 124.941 31.6767ZM122.968 34.36V31.1783H124.599C124.865 31.1783 125.131 31.255 125.282 31.4467C125.434 31.6 125.472 31.7533 125.472 31.9833C125.472 32.0983 125.434 32.2517 125.396 32.3283C125.32 32.4433 125.244 32.52 125.169 32.5583V32.5967C125.32 32.6733 125.434 32.75 125.548 32.9033C125.662 33.0567 125.7 33.21 125.7 33.4017C125.7 33.67 125.586 33.9 125.434 34.0533C125.244 34.245 124.979 34.3217 124.675 34.3217H122.968V34.36Z" fill="#2D2929"/>
<path d="M132.301 34.36H131.884V31.1783H132.301V34.36ZM130.936 32.7117C130.822 32.5583 130.632 32.4817 130.328 32.4817H129.342V34.015H130.366C130.632 34.015 130.784 33.9383 130.936 33.785C131.087 33.67 131.163 33.44 131.163 33.21C131.125 33.0183 131.049 32.8267 130.936 32.7117ZM131.201 34.0533C130.973 34.2833 130.708 34.3983 130.328 34.3983H128.887V31.2167H129.304V32.0983H130.328C130.708 32.0983 131.011 32.2517 131.239 32.4817C131.429 32.6733 131.543 32.9417 131.543 33.2483C131.543 33.555 131.429 33.8233 131.201 34.0533Z" fill="#2D2929"/>
<path d="M24.548 27.7283L37.448 31.2933V36.2L24.548 32.635V27.7283Z" fill="#2D2929"/>
<path d="M24.586 27.7667L0.151733 34.4367V36.0083L24.586 29.3383V27.7667Z" fill="#2D2929"/>
<path d="M24.548 34.2067L37.448 37.7717V42.6783L24.548 39.1133V34.2067Z" fill="#2D2929"/>
<path d="M24.586 34.245L0.151733 40.915V42.4867L24.586 35.8167V34.245Z" fill="#2D2929"/>
<path d="M24.548 40.685L37.448 44.25V49.1567L24.548 45.5917V40.685Z" fill="#2D2929"/>
<path d="M24.586 40.7233L0.151733 47.3933V48.965L24.586 42.295V40.7233Z" fill="#2D2929"/>
<path d="M52.5867 41.3366V36.7366H54.9391V41.3366H55.9635C56.3429 41.3366 56.5705 41.26 56.7602 41.1833C56.8741 41.1066 56.9879 40.9916 57.0638 40.8L58.24 38.3466C58.5055 37.81 58.9608 37.2733 59.4161 37.005C59.8714 36.7366 60.4785 36.5833 61.1235 36.5833C61.6167 36.5833 62.0341 36.6216 62.6032 36.7366L62.3756 38.7683H61.6167C61.3132 38.7683 61.0097 38.8066 60.782 38.9216C60.5923 39.0366 60.4406 39.19 60.3267 39.3816L59.1885 41.6816C59.0367 41.9116 58.885 42.18 58.7332 42.3333L62.755 48.85H59.9473L56.7602 43.4066C56.5705 43.4833 56.3429 43.4833 56.1152 43.4833H54.977V48.85H52.6246V43.4833H51.4864C51.2587 43.4833 51.0311 43.445 50.8414 43.4066L47.6543 48.85H44.8087L48.8305 42.3333C48.6787 42.18 48.527 41.9116 48.3752 41.6816L47.237 39.3816C47.1231 39.19 47.0093 39.0366 46.7817 38.9216C46.554 38.7683 46.2505 38.7683 45.947 38.7683H45.1881L44.9605 36.7366C45.4917 36.6216 45.947 36.5833 46.4402 36.5833C47.0852 36.5833 47.6923 36.7366 48.1476 37.005C48.6408 37.2733 49.0581 37.81 49.3237 38.3466L50.4999 40.8C50.5758 40.9916 50.6896 41.1066 50.8034 41.1833C50.9932 41.2983 51.2587 41.3366 51.6002 41.3366H52.5867V41.3366Z" fill="#2D2929"/>
<path d="M66.2076 45.1317L72.6956 36.7367H74.8582V48.9267H72.5438V40.4934L66.0179 48.9267H63.8932V36.7367H66.2076V45.1317Z" fill="#2D2929"/>
<path d="M88.5171 36.7366V48.9266H86.1648V38.96H81.9533L80.9668 46.205C80.853 47.125 80.5115 47.815 80.0183 48.3133C79.4871 48.8116 78.7662 49.0416 77.8556 49.0416C77.0968 49.0416 76.6036 48.965 75.8447 48.6583L76.3759 46.6266C76.8691 46.78 77.1347 46.8183 77.5141 46.8183C77.8936 46.8183 78.1971 46.7033 78.3868 46.55C78.5386 46.3966 78.6524 46.09 78.7283 45.6683L79.9424 36.8133H88.5171V36.7366Z" fill="#2D2929"/>
<path d="M93.3737 45.7066C94.1704 46.5116 95.1948 46.9333 96.2572 46.9333C97.5851 46.9333 98.6854 46.435 99.7857 45.4L101.228 47.01C99.7098 48.5433 98.344 49.1566 96.2572 49.1566C94.3981 49.1566 92.8425 48.5433 91.7042 47.3933C90.566 46.2433 89.8831 44.6717 89.8831 42.7933C89.8831 40.9917 90.5281 39.4967 91.6663 38.3467C92.8045 37.1967 94.3601 36.5067 96.2572 36.5067C98.344 36.5067 99.7098 37.12 101.228 38.5767L99.7857 40.225C98.6475 39.1517 97.5851 38.6917 96.2572 38.6917C95.1948 38.6917 94.2084 39.1133 93.4875 39.8417C92.7666 40.57 92.3113 41.6433 92.3113 42.7933C92.2734 44.0583 92.7287 45.055 93.3737 45.7066Z" fill="#2D2929"/>
<path d="M102.062 36.7367H113.103V38.9217H108.74V48.9267H106.426V38.9217H102.062V36.7367Z" fill="#2D2929"/>
<path d="M121.564 42.755C121.944 42.3333 122.133 41.835 122.133 41.2216C122.133 40.4933 121.943 39.995 121.602 39.6116C121.223 39.1516 120.54 38.96 119.781 38.96H116.556V43.4833H119.933C120.616 43.4833 121.185 43.215 121.564 42.755ZM123.233 44.4033C122.361 45.2466 121.261 45.7066 119.971 45.7066H116.594V48.9266H114.128V36.7366H119.971C121.412 36.7366 122.664 37.35 123.537 38.385C124.144 39.19 124.561 40.0716 124.561 41.26C124.599 42.4866 124.03 43.5983 123.233 44.4033Z" fill="#2D2929"/>
<path d="M128.925 45.6683C129.646 46.435 130.67 46.9333 131.808 46.9333C132.946 46.9333 133.971 46.4733 134.692 45.7066C135.337 44.9783 135.754 44.0583 135.754 42.8316C135.754 41.605 135.375 40.6083 134.692 39.88C133.971 39.1516 133.022 38.73 131.808 38.73C130.67 38.73 129.646 39.1516 128.925 39.9566C128.28 40.685 127.824 41.6433 127.824 42.87C127.824 43.9816 128.242 44.94 128.925 45.6683ZM136.323 38.3083C137.537 39.4966 138.182 41.0683 138.182 42.8316C138.182 44.595 137.575 46.1283 136.437 47.24C135.299 48.4283 133.743 49.1183 131.808 49.1183C129.873 49.1183 128.204 48.3516 127.104 47.1633C126.079 46.09 125.434 44.48 125.434 42.8316C125.434 41.145 126.041 39.6116 127.104 38.5C128.242 37.2733 129.873 36.545 131.77 36.545C133.667 36.5066 135.223 37.1966 136.323 38.3083Z" fill="#2D2929"/>
<path d="M148.351 33.8233C148.123 34.4366 147.63 34.8966 147.175 35.2416C146.643 35.6633 145.922 35.855 145.202 35.855C144.557 35.855 143.874 35.6633 143.304 35.2416C142.849 34.935 142.356 34.4366 142.128 33.8233L143.76 32.98C143.912 33.21 144.063 33.44 144.253 33.6316C144.519 33.9 144.822 34.015 145.202 34.015C145.543 34.015 145.847 33.9 146.15 33.7083C146.378 33.555 146.567 33.2866 146.681 32.98L148.351 33.8233ZM141.825 45.1316L148.313 36.7366H150.475V48.9267H148.161V40.5316L141.635 48.9267H139.472V36.7366H141.787V45.1316H141.825Z" fill="#2D2929"/>
</svg>
