<svg width="88" height="46" viewBox="0 0 88 46" fill="none" xmlns="http://www.w3.org/2000/svg">
<rect width="88" height="46" fill="#F1F1F1"/>
<path fill-rule="evenodd" clip-rule="evenodd" d="M17.9274 31.4799C16.713 32.0458 15.3582 32.3654 13.9262 32.3654C11.3184 32.3654 8.95435 31.3098 7.24541 29.5991C5.53246 27.8933 4.4761 25.5329 4.4761 22.9241C4.4761 20.3203 5.53246 17.9593 7.24541 16.2531C8.95435 14.5433 11.3184 13.4883 13.9262 13.4883C16.1417 13.4883 18.1792 14.2448 19.7893 15.5211C20.0793 15.7469 20.3516 15.9937 20.612 16.2531C20.8718 16.5079 21.1191 16.7849 21.3448 17.0743L24.3062 14.1174C24.067 13.8409 23.8162 13.5685 23.5563 13.3086C23.296 13.0498 23.0276 12.8029 22.7462 12.5646C20.3732 10.5438 17.2924 9.32672 13.9262 9.32672C10.1682 9.32672 6.76388 10.8504 4.29703 13.3086C1.83419 15.772 0.308838 19.1719 0.308838 22.9241C0.308838 26.6812 1.83419 30.0802 4.29703 32.5395C6.76388 35.0023 10.1682 36.5259 13.9262 36.5259C16.5169 36.5259 18.9376 35.8025 20.9997 34.5473L17.9274 31.4799Z" fill="#2D2929"/>
<path fill-rule="evenodd" clip-rule="evenodd" d="M13.9262 18.597L7.05786 25.4601C7.55193 26.7996 8.43424 27.9656 9.5849 28.8164C11.033 27.3696 12.4816 25.9237 13.9262 24.4813L22.7463 33.288C23.7991 32.4116 24.7577 31.2843 25.4775 30.1309C21.6297 26.2849 17.7785 22.443 13.9262 18.597" fill="#7D7D7D"/>
<path fill-rule="evenodd" clip-rule="evenodd" d="M79.4548 27.3064H81.3378V24.6303L82.33 23.5753L84.9849 27.3064H87.2521L83.6045 22.2608L87.0896 18.5423H84.8149L81.3378 22.3757V18.5423H79.4548V27.3064ZM73.234 25.6814C72.8548 25.6774 72.5052 25.6041 72.1857 25.4601C71.8702 25.3151 71.5968 25.12 71.3676 24.8686C71.1374 24.6138 70.9583 24.3198 70.8309 23.9882C70.7025 23.6566 70.6428 23.3034 70.6388 22.9246C70.6428 22.5413 70.7025 22.1841 70.8269 21.8525C70.9503 21.5204 71.1248 21.2269 71.355 20.976C71.5853 20.7247 71.8536 20.529 72.1691 20.3845C72.4796 20.2445 72.8282 20.1718 73.2084 20.1718C73.5917 20.1718 73.9413 20.2445 74.2558 20.389C74.5713 20.5335 74.8447 20.7332 75.0739 20.984C75.3086 21.2349 75.4882 21.5289 75.6116 21.861C75.739 22.1926 75.8027 22.5503 75.8027 22.9246C75.8027 23.3114 75.743 23.6691 75.6156 24.0007C75.4922 24.3323 75.3177 24.6263 75.0874 24.8772C74.8612 25.128 74.5929 25.3242 74.2773 25.4641C73.9628 25.6041 73.6167 25.6774 73.234 25.6814V25.6814ZM73.2084 27.4599C73.7401 27.4554 74.2392 27.3791 74.6997 27.2256C75.1637 27.0726 75.581 26.8558 75.9602 26.5789C76.3354 26.3025 76.6589 25.9749 76.9323 25.5966C77.2006 25.2173 77.4093 24.8049 77.5543 24.3539C77.6992 23.9029 77.7755 23.4268 77.7755 22.9246C77.7755 22.4229 77.7032 21.9418 77.5583 21.4862C77.4133 21.0352 77.2047 20.6188 76.9398 20.2446C76.6675 19.8653 76.3484 19.5377 75.9778 19.2612C75.6026 18.9893 75.1807 18.7716 74.7208 18.6226C74.2608 18.4741 73.7657 18.3933 73.234 18.3933C72.7048 18.3933 72.2063 18.4741 71.7468 18.6226C71.2823 18.7766 70.86 18.9933 70.4848 19.2693C70.1106 19.5507 69.7825 19.8778 69.5142 20.2521C69.2453 20.6314 69.0367 21.0442 68.8872 21.4993C68.7432 21.9503 68.6695 22.4264 68.6665 22.9246C68.6695 23.4303 68.7432 23.9109 68.8872 24.3624C69.0321 24.8175 69.2368 25.2299 69.5052 25.6091C69.7735 25.9834 70.093 26.311 70.4682 26.5874C70.8434 26.8639 71.2607 27.0766 71.7212 27.2301C72.1807 27.3791 72.6793 27.4554 73.2084 27.4599V27.4599ZM62.083 22.8012V20.2827H63.9535C64.265 20.2827 64.5243 20.3293 64.746 20.4227C64.9672 20.5165 65.1378 20.6569 65.2571 20.8441C65.376 21.0272 65.4357 21.2605 65.4357 21.5374C65.4357 21.7928 65.3805 22.014 65.2662 22.2052C65.1503 22.3923 64.9888 22.5373 64.7761 22.6436C64.5589 22.746 64.2991 22.7967 63.9916 22.8012H62.083ZM60.1955 27.3064H62.083V24.5029H63.5397L65.3976 27.3064H67.6046L65.5089 24.1798C65.8756 24.0388 66.1946 23.8472 66.471 23.6054C66.7444 23.3585 66.957 23.0605 67.111 22.7028C67.2635 22.3456 67.3448 21.9327 67.3448 21.4612C67.3448 21.0352 67.2811 20.6524 67.1577 20.3123C67.0333 19.9671 66.8512 19.6781 66.6119 19.4313C66.3311 19.1423 65.9774 18.9251 65.5601 18.7716C65.1428 18.6191 64.6607 18.5423 64.115 18.5423H60.1955V27.3064ZM52.5086 25.566V20.2827H53.9667C54.3544 20.2867 54.703 20.3504 55.0226 20.4788C55.3381 20.6063 55.6064 20.7884 55.8366 21.0227C56.0619 21.2565 56.2374 21.5374 56.3648 21.8565C56.4842 22.1796 56.5479 22.5373 56.5479 22.9246C56.5479 23.4564 56.4371 23.9154 56.2239 24.3108C56.0072 24.7066 55.7082 25.0136 55.3215 25.2349C54.9333 25.4516 54.4858 25.562 53.9667 25.566H52.5086ZM50.6256 27.3064H53.9667C54.5074 27.3064 55.01 27.2341 55.474 27.0896C55.9385 26.9446 56.3608 26.741 56.731 26.4771C57.1052 26.2087 57.4257 25.8981 57.6941 25.5329C57.9589 25.1707 58.1626 24.7668 58.3035 24.3283C58.4434 23.8858 58.5162 23.4223 58.5212 22.9246C58.5162 22.2995 58.4053 21.72 58.1891 21.1887C57.9664 20.661 57.6559 20.1974 57.2512 19.8016C56.8509 19.4057 56.3688 19.0957 55.8151 18.8784C55.2578 18.6572 54.6393 18.5463 53.9667 18.5423H50.6256V27.3064ZM44.9455 27.4463C45.5208 27.4463 46.041 27.3661 46.5014 27.2005C46.9649 27.0385 47.3577 26.7921 47.6857 26.464C48.0137 26.1364 48.2645 25.724 48.4401 25.2263C48.6106 24.7327 48.6999 24.1542 48.7044 23.4905V18.5423H46.8169V23.5622C46.8169 24.0263 46.7392 24.4176 46.5942 24.7282C46.4453 25.0387 46.2366 25.273 45.9597 25.43C45.6823 25.5876 45.3553 25.6683 44.9671 25.6683C44.5833 25.6683 44.2508 25.5876 43.9779 25.422C43.7015 25.2605 43.4929 25.0176 43.3434 24.6986C43.1944 24.375 43.1217 23.9796 43.1182 23.503V18.5423H41.2347V23.5497C41.2392 24.4131 41.3877 25.132 41.6856 25.707C41.98 26.2854 42.4059 26.7194 42.9602 27.0084C43.5094 27.2978 44.1745 27.4463 44.9455 27.4463V27.4463ZM35.8952 27.4599C36.4198 27.4554 36.9009 27.3916 37.3488 27.2682C37.7912 27.1448 38.1965 26.9742 38.5667 26.7665C38.9333 26.5578 39.2614 26.324 39.5553 26.0687V22.2608H35.836V23.929H37.732V25.1792C37.4933 25.3533 37.2254 25.4857 36.9224 25.575C36.624 25.6603 36.3045 25.707 35.9594 25.707C35.5757 25.7025 35.2265 25.6347 34.911 25.4983C34.5955 25.3583 34.3232 25.1661 34.0934 24.9153C33.8592 24.6685 33.6796 24.375 33.5562 24.0348C33.4283 23.6987 33.3646 23.3284 33.3646 22.9246C33.3646 22.5458 33.4283 22.1886 33.5562 21.8565C33.6796 21.5249 33.8547 21.2314 34.0804 20.9805C34.3021 20.7297 34.5619 20.529 34.8604 20.389C35.1578 20.2446 35.4778 20.1718 35.8234 20.1718C36.1515 20.1718 36.4449 20.2059 36.7007 20.2736C36.9525 20.3464 37.1908 20.4482 37.4085 20.5757C37.6297 20.7116 37.8469 20.8737 38.0641 21.0608L39.2534 19.5929C39.0266 19.4017 38.8014 19.2271 38.5667 19.0786C38.3284 18.9296 38.0771 18.8062 37.8088 18.7044C37.5444 18.602 37.25 18.5253 36.935 18.4741C36.62 18.4189 36.2659 18.3933 35.8826 18.3933C35.363 18.3933 34.8774 18.4741 34.4215 18.6226C33.9655 18.7766 33.5517 18.9933 33.181 19.2693C32.8109 19.5507 32.4954 19.8778 32.2275 20.2521C31.9586 20.6314 31.7535 21.0442 31.609 21.4993C31.4641 21.9503 31.3959 22.4264 31.3918 22.9246C31.3959 23.5838 31.5027 24.1878 31.7194 24.7367C31.9376 25.2896 32.2441 25.7667 32.6448 26.1745C33.0406 26.5789 33.5181 26.894 34.0679 27.1192C34.6171 27.3405 35.2265 27.4554 35.8952 27.4599V27.4599Z" fill="#2D2929"/>
</svg>
