<svg width="152" height="80" viewBox="0 0 152 80" fill="none" xmlns="http://www.w3.org/2000/svg">
<rect width="152" height="80" fill="#F1F1F1"/>
<path fill-rule="evenodd" clip-rule="evenodd" d="M30.9656 54.7477C28.868 55.7319 26.5279 56.2877 24.0544 56.2877C19.55 56.2877 15.4667 54.4519 12.5149 51.4767C9.55613 48.5101 7.73151 44.405 7.73151 39.868C7.73151 35.3396 9.55613 31.2336 12.5149 28.2662C15.4667 25.2927 19.55 23.4578 24.0544 23.4578C27.8812 23.4578 31.4005 24.7736 34.1816 26.9932C34.6824 27.3859 35.1529 27.8151 35.6025 28.2662C36.0513 28.7095 36.4785 29.1911 36.8683 29.6945L41.9835 24.552C41.5702 24.0712 41.1371 23.5974 40.6883 23.1455C40.2386 22.6953 39.7751 22.266 39.289 21.8516C35.1901 18.3371 29.8687 16.2204 24.0544 16.2204C17.5633 16.2204 11.6831 18.8702 7.42221 23.1455C3.16821 27.4295 0.533508 33.3425 0.533508 39.868C0.533508 46.4022 3.16821 52.3134 7.42221 56.5904C11.6831 60.8736 17.5633 63.5234 24.0544 63.5234C28.5293 63.5234 32.7105 62.2652 36.2723 60.0822L30.9656 54.7477Z" fill="#2D2929"/>
<path fill-rule="evenodd" clip-rule="evenodd" d="M24.0544 32.3425L12.1909 44.2784C13.0443 46.608 14.5682 48.6357 16.5557 50.1155C19.057 47.5992 21.5592 45.0846 24.0544 42.5762L39.2891 57.8922C41.1076 56.3679 42.7633 54.4074 44.0066 52.4015C37.3605 45.7128 30.7083 39.0312 24.0544 32.3425" fill="#7D7D7D"/>
<path fill-rule="evenodd" clip-rule="evenodd" d="M137.24 47.4893H140.493V42.8353L142.206 41.0005L146.792 47.4893H150.708L144.408 38.7145L150.427 32.2475H146.498L140.493 38.9143V32.2475H137.24V47.4893ZM126.495 44.6633C125.84 44.6563 125.236 44.5289 124.684 44.2785C124.139 44.0263 123.667 43.6869 123.271 43.2498C122.874 42.8066 122.564 42.2953 122.344 41.7185C122.122 41.1418 122.019 40.5276 122.012 39.8688C122.019 39.2022 122.122 38.581 122.337 38.0043C122.55 37.4267 122.852 36.9163 123.25 36.48C123.647 36.0429 124.111 35.7026 124.656 35.4513C125.192 35.2079 125.794 35.0814 126.451 35.0814C127.113 35.0814 127.717 35.2079 128.26 35.4592C128.805 35.7105 129.277 36.0577 129.673 36.494C130.078 36.9302 130.389 37.4415 130.602 38.0191C130.822 38.5958 130.932 39.2179 130.932 39.8688C130.932 40.5415 130.829 41.1636 130.609 41.7404C130.396 42.3171 130.094 42.8284 129.696 43.2646C129.306 43.7009 128.842 44.042 128.297 44.2855C127.754 44.5289 127.156 44.6563 126.495 44.6633V44.6633ZM126.451 47.7563C127.369 47.7484 128.231 47.6158 129.027 47.3488C129.828 47.0827 130.549 46.7058 131.204 46.2242C131.852 45.7434 132.411 45.1737 132.883 44.5158C133.347 43.8562 133.707 43.139 133.957 42.3546C134.208 41.5702 134.339 40.7422 134.339 39.8688C134.339 38.9963 134.215 38.1596 133.964 37.3673C133.714 36.583 133.353 35.8588 132.896 35.2079C132.426 34.5483 131.875 33.9785 131.234 33.4978C130.586 33.0249 129.858 32.6462 129.063 32.3871C128.269 32.1288 127.413 31.9883 126.495 31.9883C125.581 31.9883 124.72 32.1288 123.926 32.3871C123.124 32.6549 122.394 33.0319 121.746 33.5117C121.1 34.0012 120.533 34.5701 120.07 35.221C119.606 35.8806 119.245 36.5987 118.987 37.39C118.738 38.1744 118.611 39.0024 118.606 39.8688C118.611 40.7483 118.738 41.5842 118.987 42.3694C119.237 43.1608 119.591 43.878 120.054 44.5376C120.518 45.1885 121.07 45.7582 121.718 46.239C122.366 46.7197 123.087 47.0897 123.882 47.3567C124.676 47.6158 125.537 47.7484 126.451 47.7563V47.7563ZM107.234 39.6542V35.2742H110.465C111.003 35.2742 111.451 35.3553 111.834 35.5176C112.216 35.6808 112.511 35.9251 112.717 36.2505C112.922 36.569 113.025 36.9747 113.025 37.4563C113.025 37.9004 112.93 38.2852 112.732 38.6176C112.532 38.9431 112.253 39.1952 111.886 39.3802C111.511 39.5582 111.062 39.6463 110.531 39.6542H107.234ZM103.974 47.4893H107.234V42.6137H109.75L112.959 47.4893H116.772L113.152 42.0518C113.785 41.8067 114.336 41.4734 114.813 41.0528C115.286 40.6235 115.653 40.1053 115.919 39.4832C116.182 38.862 116.323 38.1439 116.323 37.3237C116.323 36.583 116.213 35.9172 116 35.3257C115.785 34.7254 115.47 34.2228 115.057 33.7936C114.572 33.291 113.961 32.9132 113.24 32.6462C112.519 32.381 111.687 32.2475 110.744 32.2475H103.974V47.4893ZM90.6965 44.4626V35.2742H93.2151C93.8849 35.2812 94.487 35.392 95.0389 35.6154C95.5839 35.837 96.0474 36.1537 96.4451 36.5612C96.8341 36.9677 97.1373 37.4563 97.3574 38.0113C97.5636 38.5732 97.6736 39.1953 97.6736 39.8688C97.6736 40.7937 97.4821 41.592 97.1139 42.2796C96.7396 42.968 96.2233 43.5019 95.5553 43.8867C94.8847 44.2636 94.1119 44.4556 93.2151 44.4626H90.6965ZM87.4441 47.4893H93.2152C94.1491 47.4893 95.0173 47.3637 95.8187 47.1124C96.6209 46.8602 97.3505 46.506 97.9899 46.047C98.6362 45.5803 99.1898 45.0402 99.6533 44.405C100.111 43.775 100.463 43.0727 100.706 42.3101C100.948 41.5405 101.073 40.7344 101.082 39.8688C101.073 38.7817 100.882 37.7739 100.508 36.85C100.124 35.9321 99.5875 35.1259 98.8883 34.4375C98.1969 33.7491 97.3643 33.2099 96.4078 32.8321C95.4453 32.4473 94.377 32.2545 93.2152 32.2475H87.4441V47.4893ZM77.6331 47.7327C78.6268 47.7327 79.5253 47.5931 80.3206 47.3052C81.1212 47.0234 81.7995 46.595 82.3662 46.0244C82.9328 45.4546 83.366 44.7374 83.6692 43.8719C83.9638 43.0133 84.118 42.0073 84.1258 40.853V32.2475H80.8656V40.9778C80.8656 41.7849 80.7313 42.4654 80.4809 43.0055C80.2236 43.5456 79.8632 43.953 79.3849 44.2261C78.9058 44.5001 78.3409 44.6406 77.6703 44.6406C77.0075 44.6406 76.4331 44.5001 75.9618 44.2122C75.4844 43.9312 75.124 43.5089 74.8658 42.954C74.6085 42.3912 74.4829 41.7037 74.4768 40.8748V32.2475H71.2235V40.956C71.2313 42.4576 71.4877 43.7079 72.0024 44.7078C72.5109 45.7138 73.2465 46.4685 74.2039 46.971C75.1526 47.4745 76.3014 47.7327 77.6331 47.7327V47.7327ZM62.0007 47.7563C62.907 47.7484 63.7378 47.6376 64.5115 47.423C65.2757 47.2084 65.9757 46.9117 66.6151 46.5505C67.2485 46.1875 67.8151 45.7809 68.3228 45.3368V38.7145H61.8985V41.6156H65.1734V43.7899C64.761 44.0926 64.2984 44.323 63.7751 44.4783C63.2596 44.6266 62.7077 44.7077 62.1116 44.7077C61.4488 44.6999 60.8458 44.5821 60.3008 44.3448C59.7559 44.1014 59.2854 43.7672 58.8886 43.3309C58.484 42.9017 58.1739 42.3912 57.9607 41.7997C57.7398 41.2151 57.6298 40.5712 57.6298 39.8688C57.6298 39.2101 57.7398 38.5889 57.9607 38.0113C58.1739 37.4345 58.4762 36.9241 58.8661 36.4879C59.249 36.0516 59.6978 35.7026 60.2133 35.4592C60.7271 35.2079 61.2799 35.0814 61.8768 35.0814C62.4434 35.0814 62.9503 35.1407 63.3921 35.2585C63.8271 35.385 64.2386 35.5621 64.6146 35.7837C64.9967 36.0202 65.3719 36.302 65.747 36.6275L67.8012 34.0745C67.4096 33.7421 67.0206 33.4384 66.6151 33.1802C66.2036 32.9211 65.7695 32.7064 65.306 32.5293C64.8494 32.3513 64.3408 32.2178 63.7967 32.1288C63.2527 32.0328 62.641 31.9883 61.9791 31.9883C61.0815 31.9883 60.2428 32.1288 59.4552 32.3871C58.6677 32.6549 57.9529 33.0319 57.3127 33.5117C56.6733 34.0012 56.1283 34.5701 55.6656 35.221C55.2013 35.8806 54.8469 36.5987 54.5974 37.39C54.347 38.1744 54.2292 39.0024 54.2222 39.8688C54.2292 41.0153 54.4137 42.0658 54.788 43.0203C55.1649 43.9818 55.6942 44.8116 56.3865 45.5209C57.0701 46.2242 57.8949 46.7721 58.8444 47.1639C59.7931 47.5486 60.8458 47.7484 62.0007 47.7563V47.7563Z" fill="#2D2929"/>
</svg>
