<svg width="63" height="34" viewBox="0 0 63 34" fill="none" xmlns="http://www.w3.org/2000/svg">
<path fill-rule="evenodd" clip-rule="evenodd" d="M6.88524 15.7869C9.00819 15.7869 10.9836 14.8361 12.3033 13.164L12.4016 13.0328L10.3852 10.8607L10.2541 11.0656C9.51638 12.2131 8.26229 12.8935 6.88524 12.8935C4.68032 12.8935 2.89344 11.1066 2.89344 8.90165C2.89344 6.68854 4.68032 4.88526 6.88524 4.88526C8.26229 4.88526 9.51638 5.56557 10.2541 6.71312L10.3852 6.91803L12.4016 4.74591L12.2951 4.61476C10.959 2.95082 8.98359 2 6.87704 2C3.08195 2 0 5.09017 0 8.89345C0.00819672 12.6967 3.09836 15.7869 6.88524 15.7869ZM38.8922 8.13936L33.8266 2.33607L33.7692 2.27051H31.8594V15.7213H34.8512V7.86886L38.8922 12.4672L42.9249 7.86886V15.7213H45.9167V2.27051H44.0069L38.8922 8.13936ZM3.26524 32.8201H0.273438V19.3774H12.8964V32.8201H9.90459V22.2627H3.26524V32.8201ZM33.3047 32.8201H36.2965V22.2627H42.9276V32.8201H45.9194V19.3774H33.3047V32.8201ZM22.7684 19.1885C24.2439 19.1885 25.6455 19.6639 26.8504 20.5655L26.9324 19.377H29.7438V32.8196H26.9324L26.8504 31.6065C25.6455 32.5 24.2357 32.9754 22.7684 32.9754C18.9652 32.9754 15.875 29.8852 15.875 26.0819C15.875 22.2786 18.9652 19.1885 22.7684 19.1885ZM22.7684 30.0901C24.9816 30.0901 26.7766 28.2868 26.7766 26.0819C26.7766 23.877 24.9734 22.0819 22.7684 22.0737C20.5553 22.0737 18.7602 23.877 18.7602 26.0819C18.7602 28.295 20.5635 30.0901 22.7684 30.0901ZM17.5713 14.5735L17.5714 14.5735C17.596 14.5981 17.6287 14.6308 17.6779 14.6472C17.9484 14.8603 18.2353 15.0161 18.5058 15.1472C19.0795 15.4423 19.7598 15.6554 20.5221 15.7784L20.973 15.8439C21.2107 15.8685 21.4566 15.8849 21.7025 15.8849H21.8336C23.85 15.8849 25.7762 15.1882 27.5713 13.8194L27.7434 13.6882L26.0795 11.9259L25.9484 11.9997C24.6861 12.7456 23.3008 13.1308 21.8418 13.1308C20.6943 13.1308 19.7517 12.8193 19.0221 12.1964C18.5467 11.7948 18.2353 11.303 18.0877 10.6964H28.4566L28.4894 10.5489C28.6041 10.0325 28.6697 9.49149 28.6697 8.98329C28.6697 5.18001 25.5795 2.08984 21.7762 2.08984C17.973 2.08984 14.8828 5.18001 14.8828 9.00788C14.8828 9.28657 14.973 10.2948 15.0139 10.5489C15.2844 11.8931 15.8746 12.9997 16.809 13.9341C17.0467 14.18 17.309 14.3931 17.5713 14.5735ZM17.9484 7.81934C18.4484 6.13082 19.9893 4.97508 21.7762 4.97508C23.5467 4.97508 25.0795 6.13082 25.5795 7.81934H17.9484ZM60.3758 7.86068C60.761 8.35248 61.0397 8.85247 61.2036 9.36067C61.3594 9.86887 61.4495 10.418 61.4495 10.9754C61.4495 11.5492 61.3676 12.0984 61.2036 12.6148C61.0397 13.123 60.761 13.6312 60.3758 14.123C59.9823 14.623 59.3922 15.0164 58.6299 15.2951C57.884 15.5738 56.9741 15.7131 55.9249 15.7131H49.3594V2.27051H52.3512V6.27051H55.9249C56.9659 6.27051 57.884 6.40984 58.6299 6.68853C59.3922 6.96722 59.9823 7.36888 60.3758 7.86068ZM56.2118 12.918C57.7282 12.918 58.4577 12.2869 58.4577 10.9918C58.4577 9.71312 57.72 9.09019 56.2118 9.09019H52.3512V12.918H56.2118ZM51.7583 28.3115C50.4633 28.3115 49.4141 29.3607 49.4141 30.6558C49.4141 31.9509 50.4633 33 51.7583 33C53.0534 33 54.1026 31.9509 54.1026 30.6558C54.1026 29.3607 53.0534 28.3115 51.7583 28.3115ZM49.4141 23.8526C49.4141 22.5575 50.4633 21.5083 51.7583 21.5083C53.0534 21.5083 54.1026 22.5575 54.1026 23.8526C54.1026 25.1476 53.0534 26.1968 51.7583 26.1968C50.4633 26.1968 49.4141 25.1476 49.4141 23.8526Z" fill="black"/>
</svg>
