<svg display="none" xmlns="http://www.w3.org/2000/svg">
  <symbol id="phone" viewBox="0 0 24 24">
    <path d="M16.9108 2.00062L20.8395 2.00062C21.1208 2.0005 21.4531 1.98841 21.8047 2.03528C21.8828 2.25233 21.9286 2.7533 21.9483 3.0339C21.9817 3.51943 21.9994 3.91607 21.9994 4.22272C21.9994 14.0411 14.041 21.9995 4.22265 21.9995C3.916 21.9995 3.51936 21.9828 3.03383 21.9484C2.75322 21.9287 2.33597 21.8439 2.02354 21.7501C2.01172 21.5118 2.00042 21.1209 2.00055 20.8396L2.00055 16.9109C2.00041 16.7731 2 16.422 2 16.422C2 16.422 2.3634 16.3714 2.50052 16.3576C2.75606 16.332 2.95939 16.3087 3.11382 16.2865C4.65476 16.0657 6.15346 15.6132 7.55913 14.9443C7.69234 14.881 7.87891 14.797 7.95312 14.7579C7.99219 14.8048 8.07422 14.9415 8.18909 15.1077L9.90233 17.5053C13.3182 16.0393 16.0404 13.3172 17.5064 9.9013L15.1132 8.19028C15.0154 8.12034 14.8516 7.99231 14.7578 7.91028C14.8359 7.75403 14.8963 7.66235 14.9476 7.55365C15.6152 6.14815 16.0666 4.64983 16.2864 3.10945C16.3086 2.95502 16.3331 2.75169 16.3575 2.49838C16.3716 2.36145 16.3945 2.13294 16.4375 2.03528C16.5664 2.01184 16.7732 1.99935 16.9108 1.99951L16.9108 2.00062Z" fill="black"/>
  </symbol>
  <symbol id="our-services-1" viewBox="0 0 50 50">
    <path fill-rule="evenodd" clip-rule="evenodd" d="M32 27C36.9706 27 41 22.9706 41 18C41 13.0294 36.9706 9 32 9C27.0294 9 23 13.0294 23 18C23 22.9706 27.0294 27 32 27ZM32 28C37.5228 28 42 23.5228 42 18C42 12.4772 37.5228 8 32 8C26.4772 8 22 12.4772 22 18C22 23.5228 26.4772 28 32 28Z" fill="black"/>
    <path fill-rule="evenodd" clip-rule="evenodd" d="M30 35C38.2843 35 45 28.2843 45 20C45 11.7157 38.2843 5 30 5C21.7157 5 15 11.7157 15 20C15 28.2843 21.7157 35 30 35ZM30 36C38.8366 36 46 28.8366 46 20C46 11.1634 38.8366 4 30 4C21.1634 4 14 11.1634 14 20C14 28.8366 21.1634 36 30 36Z" fill="black"/>
    <path fill-rule="evenodd" clip-rule="evenodd" d="M25 49C38.2548 49 49 38.2548 49 25C49 11.7452 38.2548 1 25 1C11.7452 1 1 11.7452 1 25C1 38.2548 11.7452 49 25 49ZM25 50C38.8071 50 50 38.8071 50 25C50 11.1929 38.8071 0 25 0C11.1929 0 0 11.1929 0 25C0 38.8071 11.1929 50 25 50Z" fill="black"/>
  </symbol>
  <symbol id="our-services-2" viewBox="0 0 52 48">
    <path fill-rule="evenodd" clip-rule="evenodd" d="M26 29C33.732 29 40 22.732 40 15C40 7.26801 33.732 1 26 1C18.268 1 12 7.26801 12 15C12 22.732 18.268 29 26 29ZM26 30C34.2843 30 41 23.2843 41 15C41 6.71573 34.2843 0 26 0C17.7157 0 11 6.71573 11 15C11 23.2843 17.7157 30 26 30Z" fill="black"/>
    <path fill-rule="evenodd" clip-rule="evenodd" d="M15 47C22.732 47 29 40.732 29 33C29 25.268 22.732 19 15 19C7.26801 19 1 25.268 1 33C1 40.732 7.26801 47 15 47ZM15 48C23.2843 48 30 41.2843 30 33C30 24.7157 23.2843 18 15 18C6.71573 18 0 24.7157 0 33C0 41.2843 6.71573 48 15 48Z" fill="black"/>
    <path fill-rule="evenodd" clip-rule="evenodd" d="M37 47C44.732 47 51 40.732 51 33C51 25.268 44.732 19 37 19C29.268 19 23 25.268 23 33C23 40.732 29.268 47 37 47ZM37 48C45.2843 48 52 41.2843 52 33C52 24.7157 45.2843 18 37 18C28.7157 18 22 24.7157 22 33C22 41.2843 28.7157 48 37 48Z" fill="black"/>
  </symbol>
  <symbol id="our-services-3" viewBox="0 0 50 45">
    <path fill-rule="evenodd" clip-rule="evenodd" d="M19 38C24.5228 38 29 33.5229 29 28C29 22.4772 24.5228 18 19 18C13.4772 18 9 22.4772 9 28C9 33.5229 13.4772 38 19 38ZM19 39C25.0751 39 30 34.0751 30 28C30 21.9249 25.0751 17 19 17C12.9249 17 8 21.9249 8 28C8 34.0751 12.9249 39 19 39Z" fill="black"/>
    <path fill-rule="evenodd" clip-rule="evenodd" d="M8 44C11.866 44 15 40.866 15 37C15 33.134 11.866 30 8 30C4.13401 30 1 33.134 1 37C1 40.866 4.13401 44 8 44ZM8 45C12.4183 45 16 41.4183 16 37C16 32.5817 12.4183 29 8 29C3.58172 29 0 32.5817 0 37C0 41.4183 3.58172 45 8 45Z" fill="black"/>
    <path fill-rule="evenodd" clip-rule="evenodd" d="M34 31C42.2843 31 49 24.2843 49 16C49 7.71573 42.2843 1 34 1C25.7157 1 19 7.71573 19 16C19 24.2843 25.7157 31 34 31ZM34 32C42.8366 32 50 24.8366 50 16C50 7.16344 42.8366 0 34 0C25.1634 0 18 7.16344 18 16C18 24.8366 25.1634 32 34 32Z" fill="black"/>
  </symbol>
  <symbol id="our-services-4" viewBox="0 0 51 48">
    <path fill-rule="evenodd" clip-rule="evenodd" d="M23 47C35.1503 47 45 37.1503 45 25C45 12.8497 35.1503 3 23 3C10.8497 3 1 12.8497 1 25C1 37.1503 10.8497 47 23 47ZM23 48C35.7025 48 46 37.7025 46 25C46 12.2975 35.7025 2 23 2C10.2975 2 0 12.2975 0 25C0 37.7025 10.2975 48 23 48Z" fill="black"/>
    <path fill-rule="evenodd" clip-rule="evenodd" d="M41 19C45.9706 19 50 14.9706 50 10C50 5.02944 45.9706 1 41 1C36.0294 1 32 5.02944 32 10C32 14.9706 36.0294 19 41 19ZM41 20C46.5228 20 51 15.5228 51 10C51 4.47715 46.5228 0 41 0C35.4772 0 31 4.47715 31 10C31 15.5228 35.4772 20 41 20Z" fill="black"/>
  </symbol>
  <symbol id="instagram" viewBox="0 0 16 16">
    <path fill-rule="evenodd" clip-rule="evenodd" d="M0 0H16V5H12.0004C11.0882 3.78555 9.63582 3 8 3C6.36418 3 4.91184 3.78555 3.99963 5H0V0ZM12.9 7H16V16H0V7H3.10002C3.03443 7.32311 3 7.65753 3 8C3 10.7614 5.23858 13 8 13C10.7614 13 13 10.7614 13 8C13 7.65753 12.9656 7.32311 12.9 7ZM8 5C6.34315 5 5 6.34315 5 8C5 9.65685 6.34315 11 8 11C9.65685 11 11 9.65685 11 8C11 6.34315 9.65685 5 8 5ZM13.5 4C14.3284 4 15 3.32843 15 2.5C15 1.67157 14.3284 1 13.5 1C12.6716 1 12 1.67157 12 2.5C12 3.32843 12.6716 4 13.5 4Z" fill="black"/>
  </symbol>
  <symbol id="vk" viewBox="0 0 20 13">
    <path d="M10.8931 13C4.0599 13 0.162399 8.12012 0 0H3.42286C3.53529 5.95996 6.05865 8.48448 8.0574 9.005V0H11.2805V5.14014C13.2543 4.91892 15.3277 2.57658 16.0273 0H19.2503C18.7132 3.17518 16.4646 5.51752 14.8656 6.48048C16.4646 7.26126 19.0256 9.30431 20 13H16.4521C15.6901 10.5275 13.7914 8.61461 11.2805 8.35435V13H10.8931Z" fill="black"/>
  </symbol>
  <symbol id="facebook" viewBox="0 0 10 20">
    <path d="M2.96804 11.2497V20H6.621V11.2497H9.34475L9.86301 7.63023H6.621V5.28247C6.621 4.292 7.07306 3.326 8.52512 3.326H10V0.244559C10 0.244559 8.6621 0 7.38356 0C4.71233 0 2.96804 1.73392 2.96804 4.87161V7.63023H0V11.2497H2.96804Z" fill="black"/>
  </symbol>
  <symbol id="arrow-right" viewBox="0 0 22 24">
    <path fill-rule="evenodd" clip-rule="evenodd" d="M0.84375 14.1569L0.84375 10.1569L13.501 10.1569L7.01563 3.67157L9.84405 0.843147L21.1578 12.1569L21.1577 12.1569L21.1578 12.157L9.84405 23.4707L7.01563 20.6423L13.501 14.1569L0.84375 14.1569Z" fill="white"/>
  </symbol>
</svg>