<svg display="none" xmlns="http://www.w3.org/2000/svg">
  <symbol id="phone" viewBox="0 0 24 24">
    <path d="M16.9108 2.00062L20.8395 2.00062C21.1208 2.0005 21.4531 1.98841 21.8047 2.03528C21.8828 2.25233 21.9286 2.7533 21.9483 3.0339C21.9817 3.51943 21.9994 3.91607 21.9994 4.22272C21.9994 14.0411 14.041 21.9995 4.22265 21.9995C3.916 21.9995 3.51936 21.9828 3.03383 21.9484C2.75322 21.9287 2.33597 21.8439 2.02354 21.7501C2.01172 21.5118 2.00042 21.1209 2.00055 20.8396L2.00055 16.9109C2.00041 16.7731 2 16.422 2 16.422C2 16.422 2.3634 16.3714 2.50052 16.3576C2.75606 16.332 2.95939 16.3087 3.11382 16.2865C4.65476 16.0657 6.15346 15.6132 7.55913 14.9443C7.69234 14.881 7.87891 14.797 7.95312 14.7579C7.99219 14.8048 8.07422 14.9415 8.18909 15.1077L9.90233 17.5053C13.3182 16.0393 16.0404 13.3172 17.5064 9.9013L15.1132 8.19028C15.0154 8.12034 14.8516 7.99231 14.7578 7.91028C14.8359 7.75403 14.8963 7.66235 14.9476 7.55365C15.6152 6.14815 16.0666 4.64983 16.2864 3.10945C16.3086 2.95502 16.3331 2.75169 16.3575 2.49838C16.3716 2.36145 16.3945 2.13294 16.4375 2.03528C16.5664 2.01184 16.7732 1.99935 16.9108 1.99951L16.9108 2.00062Z" fill="black"/>
  </symbol>
</svg>